<svg version="1.1" id="Layer_1" xmlns="http://www.w3.org/2000/svg" xmlns:xlink="http://www.w3.org/1999/xlink" x="0px" y="0px" width="574.9px" height="225.6px" viewBox="0 0 574.9 225.6" style="enable-background:new 0 0 574.9 225.6;" xml:space="preserve">
<style type="text/css">
	.st0{fill:#FFFFFF;}
	.st1{fill:#EE0000;}
</style>
    <title>Logo-Red_Hat-Ansible_Automation-A-Reverse-SVG</title>
    <path class="st0" d="M212.1,151.3h12.8l29.7,72.8h-11.8l-8.4-21.3h-32.5l-8.5,21.3H182L212.1,151.3z M230.9,193.7l-12.7-31.9  l-12.6,31.9H230.9z"/>
    <path class="st0" d="M260.8,171.2h10.4v5.3c4.2-4.2,10-6.5,15.9-6.3c12.2,0,20.6,8.5,20.6,20.7v33.3h-10.3v-31.5  c0-8.2-5-13.4-13.2-13.4c-5.2-0.2-10.2,2.4-13,6.9v38.1h-10.4L260.8,171.2z"/>
    <path class="st0" d="M320.5,210.4c4.8,4.2,10.9,6.5,17.3,6.6c8.3,0,12.7-3.6,12.7-7.9c0-3.7-2.6-5.9-8.5-6.8l-9.6-1.4  c-10.4-1.5-15.8-6.4-15.8-14.7c0-9.7,8.5-16,20.7-16c7.6,0,15,2.3,21.2,6.8l-5.3,6.9c-5.1-3.4-10.4-5.5-16.7-5.5  c-6.1,0-10.6,2.7-10.6,7.2c0,4,2.5,5.7,8.7,6.6l9.6,1.4c10.7,1.6,16,6.7,16,14.8c0,9.6-9.6,16.6-22.1,16.6c-8.8,0-17.2-2.6-23.2-7.8  L320.5,210.4z"/>
    <path class="st0" d="M366.9,156.2c0-3.6,2.9-6.4,6.5-6.4c3.6,0,6.4,2.9,6.4,6.5c0,3.6-2.9,6.4-6.4,6.4  C369.8,162.6,366.9,159.8,366.9,156.2z M378.5,224.1h-10.4v-52.9h10.4V224.1z"/>
    <path class="st0" d="M416.8,224.9c-5.7,0-11.3-1.8-15.9-5.3v4.5h-10.3v-72.8L401,149v27c4.5-3.8,10.2-5.8,16.1-5.7  c15.1,0,26.7,12.1,26.7,27.2S432.2,224.9,416.8,224.9z M401,185.6v24.1c3.8,4,9.1,6.2,14.7,6.1c10.3,0,18-7.9,18-18.2  c0-10.5-7.9-18.3-18-18.3C409.5,179.4,404.4,181.7,401,185.6z"/>
    <path class="st0" d="M464,224.1h-10.4v-72.8L464,149V224.1z"/>
    <path class="st0" d="M500.3,170.3c14.6,0,25.6,12.1,25.6,27.7v3h-41.8c1.3,8.8,9,15.3,17.9,15.2c4.9,0.1,9.6-1.6,13.4-4.7l6.7,6.6  c-5.8,4.7-13,7.2-20.5,7c-15.6,0-27.8-12-27.8-27.4C473.8,182.4,485.3,170.3,500.3,170.3z M484.2,193.2h31.4  c-1.5-8.1-7.8-14.1-15.5-14.1C492,179.1,485.7,184.9,484.2,193.2z"/>
    <path class="st0" d="M541.8,98.9c0,11.9,7.2,17.7,20.2,17.7c4-0.1,8-0.7,11.9-1.7v-13.8c-2.5,0.8-5.1,1.2-7.7,1.2  c-5.4,0-7.4-1.7-7.4-6.7V74.4h15.6V60.2h-15.6v-18l-17,3.7v14.3h-11.3v14.2h11.2V98.9z M488.9,99.2c0-3.7,3.7-5.5,9.2-5.5  c3.4,0,6.8,0.4,10.1,1.3v7.2c-3.3,1.8-6.9,2.7-10.6,2.6C492.2,104.8,488.9,102.7,488.9,99.2 M494.1,116.8c6,0,10.8-1.3,15.4-4.3v3.4  h16.8V80.2c0-13.6-9.2-21-24.4-21c-8.5,0-16.9,2-26,6.1l6.1,12.5c6.5-2.7,12-4.4,16.8-4.4c7,0,10.6,2.7,10.6,8.3v2.7  c-4.1-1.1-8.4-1.6-12.6-1.6c-14.3,0-22.9,6-22.9,16.7C473.9,109.3,481.7,116.8,494.1,116.8 M401.6,115.8h18.1V87H450v28.8h18.1V42.2  H450v28.3h-30.3V42.2h-18.1L401.6,115.8z M332.7,87.9c0-8,6.3-14.1,14.6-14.1c4.3-0.1,8.5,1.4,11.8,4.3v19.4  c-3.2,3-7.4,4.6-11.8,4.4C339.1,102,332.7,95.9,332.7,87.9 M359.3,115.8h16.8V38.5l-17,3.7v21c-4.3-2.5-9.3-3.7-14.2-3.7  C328.7,59.5,316,72,316,88c-0.2,15.6,12.3,28.4,27.9,28.6c0.2,0,0.3,0,0.5,0c5.4,0,10.6-1.7,14.9-4.8L359.3,115.8z M282.1,73.1  c5.4,0.1,10.1,3.6,11.7,8.8h-23.3C272.2,76.4,276.4,73.1,282.1,73.1 M253.4,88c0,16.2,13.3,28.8,30.3,28.8c9.4,0,16.2-2.5,23.2-8.4  l-11.2-10c-2.6,2.7-6.5,4.2-11.1,4.2c-5.9,0.2-11.4-3.3-13.7-8.8h39.6v-4.2c0-17.7-11.9-30.4-28.1-30.4c-15.8-0.2-28.8,12.4-29,28.1  C253.4,87.6,253.4,87.8,253.4,88 M224.1,57.7c6,0,9.4,3.8,9.4,8.3s-3.4,8.3-9.4,8.3h-17.9V57.7H224.1z M188.1,115.8h18.1V89H220  l13.9,26.8H254l-16.2-29.4c8.4-3.4,13.9-11.6,13.9-20.7c0-13.2-10.4-23.5-26-23.5h-37.6L188.1,115.8z"/>
    <circle class="st1" cx="76.9" cy="77.4" r="76.4"/>
    <path class="st0" d="M113.1,107.9l-30.3-73c-0.7-2-2.6-3.3-4.7-3.2c-2.1-0.1-4.1,1.2-4.8,3.2L39.9,115h11.4l13.2-33l39.3,31.8  c1.6,1.3,2.7,1.9,4.2,1.9c3,0.1,5.5-2.3,5.6-5.3c0,0,0-0.1,0-0.1C113.5,109.4,113.4,108.7,113.1,107.9z M78.1,48l19.7,48.7L68,73.2  L78.1,48z"/>
</svg>