<svg width="108" height="24" viewBox="0 0 108 24" version="1.1" xmlns="http://www.w3.org/2000/svg" xmlns:xlink="http://www.w3.org/1999/xlink">
    <title>Group</title>
    <desc>Created using Figma</desc>
    <g id="Canvas" transform="translate(-11211 -227)">
        <g id="Group">
            <g id="Combined Shape">
                <use xlink:href="#path0_fill" transform="translate(11241 231.47)" fill="#FFFFFF"/>
            </g>
            <g id="Fill 360">
                <use xlink:href="#path1_fill" transform="translate(11211 227.499)" fill="#E26337"/>
            </g>
            <g id="Fill 361">
                <use xlink:href="#path1_fill" transform="translate(11223 227.499)" fill="#88B952"/>
            </g>
            <g id="Fill 362">
                <use xlink:href="#path1_fill" transform="translate(11223 239.499)" fill="#F1B92D"/>
            </g>
            <g id="Fill 363">
                <use xlink:href="#path1_fill" transform="translate(11211 239.499)" fill="#45A2CA"/>
            </g>
        </g>
    </g>
    <defs>
        <path id="path0_fill" fill-rule="evenodd" d="M 77.1396 4.91498L 77.1396 6.80902L 74.7998 6.80902L 74.7998 11.472C 74.7998 12.071 74.9102 12.497 75.1201 12.741C 75.3301 12.984 75.6602 13.106 76.1104 13.106C 76.1699 13.106 76.2393 13.0996 76.3154 13.0867C 76.3936 13.0736 76.4795 13.0537 76.5703 13.027C 76.7598 12.975 76.9102 12.906 77.04 12.821L 77.1396 12.757L 77.1396 14.67L 77.0996 14.688C 76.9697 14.768 76.7305 14.843 76.3799 14.919C 76.1992 14.9577 76.0225 14.9866 75.8477 15.0051C 75.6924 15.0216 75.54 15.03 75.3896 15.03C 73.4697 15.03 72.4902 13.97 72.4902 11.882L 72.4902 6.80902L 69.04 6.80902L 69.04 14.791L 66.71 14.791L 66.71 6.80902L 65.0801 6.80902L 65.0801 4.91498L 66.71 4.91498L 66.71 3.54797C 66.71 2.86102 66.8604 2.23999 67.1504 1.703C 67.4502 1.16498 67.8701 0.742004 68.4102 0.445007C 68.9502 0.150024 69.5703 0 70.25 0C 70.79 0 71.2305 0.059021 71.54 0.174988L 71.5898 0.189026L 71.5898 2.185L 71.5 2.14697C 71.1602 1.992 70.8105 1.91302 70.4902 1.91302C 70.0303 1.91302 69.6699 2.06201 69.4199 2.354C 69.248 2.54974 69.1377 2.80975 69.082 3.13055C 69.0537 3.29492 69.04 3.47522 69.04 3.67102L 69.04 4.91498L 72.4902 4.91498L 72.4902 2.68298L 72.5303 2.66998L 74.7197 1.99298L 74.7998 1.96802L 74.7998 4.91498L 77.1396 4.91498ZM 17.2002 1.10504C 17.4707 0.848022 17.7998 0.718018 18.1807 0.718018C 18.4023 0.718018 18.6084 0.761108 18.7939 0.847107C 18.9346 0.91217 19.0645 1.00183 19.1807 1.11603C 19.4404 1.38104 19.5801 1.703 19.5801 2.07404C 19.5801 2.453 19.4404 2.77203 19.1699 3.02502C 18.9463 3.23236 18.6738 3.35577 18.3711 3.39185C 18.3086 3.39929 18.2451 3.40302 18.1807 3.40302C 17.79 3.40302 17.46 3.27502 17.1904 3.02405C 16.9199 2.77203 16.7803 2.453 16.7803 2.07404C 16.7803 1.8313 16.8359 1.61176 16.9473 1.41766C 17.0127 1.30469 17.0967 1.20032 17.2002 1.10504ZM 8.05957 9.65802L 7.41992 11.465L 7.37988 11.465C 7.26953 11.0421 7.07031 10.441 6.76953 9.67804L 3.34961 1.00903L 0 1.00903L 0 14.791L 2.20996 14.791L 2.20996 6.31903C 2.20996 5.79602 2.2002 5.16406 2.17969 4.44104C 2.17188 4.29095 2.16016 4.15295 2.14941 4.02698L 2.13867 3.91168L 2.12402 3.7525C 2.11816 3.68256 2.11328 3.61774 2.11035 3.55804L 2.16016 3.55804C 2.26855 4.07208 2.3877 4.46545 2.4668 4.73047L 2.46973 4.73804L 6.58008 14.791L 8.12988 14.791L 12.2002 4.64703C 12.2383 4.55878 12.2744 4.43823 12.3105 4.30029C 12.3555 4.12848 12.3994 3.92975 12.4424 3.73291L 12.4805 3.55804L 12.5303 3.55804L 12.5098 3.97583L 12.5068 4.04846C 12.4658 4.85602 12.4297 5.57159 12.4297 6.03302L 12.4297 14.791L 14.7803 14.791L 14.7803 1.00903L 11.5703 1.00903L 8.05957 9.65802ZM 17 14.791L 19.2998 14.791L 19.2998 4.91504L 17 4.91504L 17 14.791ZM 27.46 4.81604C 27.0098 4.72302 26.5801 4.67603 26.1699 4.67603C 25.1094 4.67603 24.1699 4.90503 23.3701 5.35602C 22.5693 5.80701 21.9395 6.45203 21.5195 7.27203C 21.0996 8.09003 20.8896 9.04504 20.8896 10.11C 20.8896 11.043 21.0898 11.899 21.5 12.6541C 21.9092 13.41 22.4893 14.002 23.2295 14.412C 23.96 14.822 24.8096 15.03 25.7393 15.03C 26.8398 15.03 27.7695 14.809 28.5195 14.373L 28.5498 14.356L 28.5498 12.2271L 28.46 12.299C 28.3896 12.3503 28.3184 12.3996 28.2451 12.4467C 28.1924 12.4805 28.1387 12.5131 28.084 12.5446C 27.8467 12.682 27.5947 12.7977 27.3301 12.89C 27.1709 12.9454 27.0176 12.9903 26.8711 13.0245C 26.6406 13.0786 26.4258 13.106 26.2295 13.106C 25.3193 13.106 24.5996 12.821 24.0693 12.259C 23.54 11.696 23.2793 10.905 23.2793 9.91003C 23.2793 8.90802 23.5498 8.09705 24.0996 7.49902C 24.6494 6.90302 25.3799 6.60004 26.2598 6.60004C 27.0195 6.60004 27.7598 6.85901 28.46 7.36902L 28.5498 7.44L 28.5498 5.19702L 28.5195 5.17902C 28.2598 5.03101 27.8994 4.909 27.46 4.81604ZM 33.5 5.30103C 33.9502 4.93005 34.46 4.74304 35.04 4.74304C 35.4297 4.74304 35.7305 4.79004 35.9404 4.88202L 35.9805 4.89807L 35.9805 7.23901L 35.8896 7.16907C 35.7803 7.09204 35.5996 7.01807 35.3496 6.95001C 35.0996 6.88202 34.8604 6.84705 34.6602 6.84705C 34.04 6.84705 33.54 7.11401 33.1699 7.64105C 32.79 8.17407 32.5898 8.88007 32.5898 9.73804L 32.5898 14.791L 30.29 14.791L 30.29 4.91504L 32.5898 4.91504L 32.5898 6.62506L 32.6201 6.62506C 32.8301 6.07007 33.1104 5.62506 33.5 5.30103ZM 37.4902 6.09503C 36.5703 7.03601 36.1104 8.33905 36.1104 9.96802C 36.1104 11.514 36.5605 12.757 37.4502 13.663C 38.3506 14.57 39.5605 15.03 41.0605 15.03C 42.6299 15.03 43.8799 14.546 44.8008 13.592C 45.71 12.638 46.1699 11.348 46.1699 9.758C 46.1699 8.18604 45.7402 6.93304 44.8799 6.034C 44.0205 5.133 42.8203 4.67603 41.3008 4.67603C 39.6807 4.67603 38.4004 5.15405 37.4902 6.09503ZM 41.1904 13.106C 42.04 13.106 42.6904 12.829 43.1299 12.2811C 43.5596 11.73 43.7803 10.9061 43.7803 9.83405C 43.7803 8.77502 43.5498 7.96106 43.0898 7.41705C 42.6299 6.87402 41.9805 6.60004 41.1699 6.60004C 40.3398 6.60004 39.6797 6.88702 39.21 7.45404C 38.7402 8.02405 38.5 8.84406 38.5 9.89105C 38.5 10.9061 38.7402 11.705 39.21 12.2661C 39.6797 12.8231 40.3496 13.106 41.1904 13.106ZM 51.2803 8.99603C 50.5498 8.70105 50.0898 8.45703 49.9004 8.271C 49.8535 8.2262 49.8125 8.17688 49.7773 8.12305C 49.7393 8.06384 49.708 7.99921 49.6836 7.92932C 49.6592 7.86029 49.6426 7.78613 49.6318 7.70697C 49.624 7.64441 49.6201 7.57874 49.6201 7.51001C 49.6201 7.39801 49.6367 7.2948 49.6709 7.19952C 49.7256 7.04974 49.8232 6.91968 49.9697 6.80603C 50.21 6.61804 50.54 6.52405 50.96 6.52405C 51.3496 6.52405 51.75 6.58502 52.1396 6.70703C 52.54 6.828 52.8896 6.99005 53.1797 7.18903L 53.2705 7.255L 53.2705 5.10706L 53.2305 5.091C 52.9697 4.97504 52.6201 4.87701 52.1904 4.797C 51.7598 4.71704 51.3701 4.67603 51.04 4.67603C 49.9404 4.67603 49.0303 4.96002 48.3398 5.51904C 47.6396 6.08105 47.29 6.81805 47.29 7.71002C 47.29 8.17401 47.3604 8.58502 47.5098 8.93402C 47.6602 9.28503 47.9004 9.59406 48.21 9.85303C 48.5205 10.11 49 10.3781 49.6299 10.653C 50.1602 10.873 50.5498 11.059 50.8096 11.2061C 51.0498 11.35 51.2305 11.495 51.3203 11.636C 51.4199 11.774 51.4697 11.963 51.4697 12.196C 51.4697 12.86 50.9805 13.182 49.96 13.182C 49.7373 13.182 49.4922 13.1533 49.2305 13.0963C 49.0576 13.0588 48.877 13.009 48.6904 12.947C 48.2197 12.791 47.7803 12.567 47.3799 12.28L 47.29 12.209L 47.29 14.474L 47.3203 14.4901C 47.6504 14.644 48.0703 14.774 48.5596 14.876C 49.0498 14.978 49.4902 15.03 49.8799 15.03C 51.0703 15.03 52.0303 14.744 52.7305 14.183C 53.4297 13.617 53.79 12.863 53.79 11.939C 53.79 11.273 53.5996 10.702 53.2197 10.242C 52.8398 9.78503 52.1904 9.36603 51.2803 8.99603ZM 56.1699 6.09503C 57.0898 5.15405 58.3701 4.67603 59.9805 4.67603C 61.5 4.67603 62.71 5.133 63.5703 6.034C 64.4199 6.93304 64.8604 8.18604 64.8604 9.758C 64.8604 11.348 64.3896 12.638 63.4805 13.592C 62.5703 14.546 61.3096 15.03 59.75 15.03C 58.2402 15.03 57.0303 14.57 56.1396 13.663C 55.25 12.757 54.79 11.514 54.79 9.96802C 54.79 8.33905 55.2598 7.03601 56.1699 6.09503ZM 61.8096 12.2811C 61.3799 12.829 60.7295 13.106 59.8799 13.106C 59.0293 13.106 58.3701 12.8231 57.8994 12.2661C 57.4199 11.705 57.1797 10.9061 57.1797 9.89105C 57.1797 8.84406 57.4199 8.02405 57.8994 7.45404C 58.3701 6.88702 59.0293 6.60004 59.8594 6.60004C 60.6699 6.60004 61.3096 6.87402 61.7695 7.41705C 62.2393 7.96106 62.4697 8.77502 62.4697 9.83405C 62.4697 10.9061 62.25 11.73 61.8096 12.2811Z"/>
        <path id="path1_fill" fill-rule="evenodd" d="M 0 11L 11 11L 11 0L 0 0L 0 11Z"/>
    </defs>
</svg>