<svg width="243px" height="62px" viewBox="0 0 243 62" version="1.1" xmlns="http://www.w3.org/2000/svg" xmlns:xlink="http://www.w3.org/1999/xlink">
    <g class="ectlogo-Symbols" stroke="none" stroke-width="1" fill="none" fill-rule="evenodd">
        <g class="ectlogo-Element-Logo" fill-rule="nonzero">
            <g class="ectlogo-ECT_Colour_RGB" fill="#ffffff">
                <g class="ect-main-color" transform="translate(14.000000, 31.000000)">
                    <path d="M0.329961089,0.786206897 C0.329961089,0.620689655 0.453696498,0.496551724 0.618677043,0.496551724 L7.1766537,0.496551724 C7.34163424,0.496551724 7.46536965,0.620689655 7.46536965,0.786206897 L7.46536965,2.52413793 C7.46536965,2.68965517 7.34163424,2.8137931 7.1766537,2.8137931 L2.80466926,2.8137931 L2.80466926,4.8 L6.43424125,4.8 C6.59922179,4.8 6.7229572,4.92413793 6.7229572,5.08965517 L6.7229572,6.82758621 C6.7229572,6.99310345 6.59922179,7.11724138 6.43424125,7.11724138 L2.80466926,7.11724138 L2.80466926,9.26896552 L7.21789883,9.26896552 C7.38287938,9.26896552 7.50661479,9.39310345 7.50661479,9.55862069 L7.50661479,11.2965517 C7.50661479,11.462069 7.38287938,11.5862069 7.21789883,11.5862069 L0.659922179,11.5862069 C0.494941634,11.5862069 0.371206226,11.462069 0.371206226,11.2965517 L0.371206226,0.786206897 L0.329961089,0.786206897 Z" class="ectlogo-Shape"></path>
                    <path d="M10.888716,0.786206897 C10.888716,0.620689655 11.0124514,0.496551724 11.1774319,0.496551724 L13.0747082,0.496551724 C13.2396887,0.496551724 13.3634241,0.620689655 13.3634241,0.786206897 L13.3634241,9.26896552 L17.1579767,9.26896552 C17.3229572,9.26896552 17.4466926,9.39310345 17.4466926,9.55862069 L17.4466926,11.2965517 C17.4466926,11.462069 17.3229572,11.5862069 17.1579767,11.5862069 L11.1774319,11.5862069 C11.0124514,11.5862069 10.888716,11.462069 10.888716,11.2965517 L10.888716,0.786206897 Z" class="ectlogo-Shape"></path>
                    <path d="M20.2101167,0.786206897 C20.2101167,0.620689655 20.3338521,0.496551724 20.4988327,0.496551724 L22.3961089,0.496551724 C22.5610895,0.496551724 22.6848249,0.620689655 22.6848249,0.786206897 L22.6848249,11.337931 C22.6848249,11.5034483 22.5610895,11.6275862 22.3961089,11.6275862 L20.4988327,11.6275862 C20.3338521,11.6275862 20.2101167,11.5034483 20.2101167,11.337931 L20.2101167,0.786206897 Z" class="ectlogo-Shape"></path>
                    <path d="M28.1291829,2.8137931 L25.8607004,2.8137931 C25.6957198,2.8137931 25.5719844,2.68965517 25.5719844,2.52413793 L25.5719844,0.786206897 C25.5719844,0.620689655 25.6957198,0.496551724 25.8607004,0.496551724 L32.9136187,0.496551724 C33.0785992,0.496551724 33.2023346,0.620689655 33.2023346,0.786206897 L33.2023346,2.52413793 C33.2023346,2.68965517 33.0785992,2.8137931 32.9136187,2.8137931 L30.6451362,2.8137931 L30.6451362,11.2965517 C30.6451362,11.462069 30.5214008,11.5862069 30.3564202,11.5862069 L28.459144,11.5862069 C28.2941634,11.5862069 28.170428,11.462069 28.170428,11.2965517 L28.170428,2.8137931 L28.1291829,2.8137931 Z" class="ectlogo-Shape"></path>
                    <path d="M36.048249,0.786206897 C36.048249,0.620689655 36.1719844,0.496551724 36.336965,0.496551724 L42.8949416,0.496551724 C43.0599222,0.496551724 43.1836576,0.620689655 43.1836576,0.786206897 L43.1836576,2.52413793 C43.1836576,2.68965517 43.0599222,2.8137931 42.8949416,2.8137931 L38.4817121,2.8137931 L38.4817121,4.8 L42.111284,4.8 C42.2762646,4.8 42.4,4.92413793 42.4,5.08965517 L42.4,6.82758621 C42.4,6.99310345 42.2762646,7.11724138 42.111284,7.11724138 L38.4817121,7.11724138 L38.4817121,9.26896552 L42.8949416,9.26896552 C43.0599222,9.26896552 43.1836576,9.39310345 43.1836576,9.55862069 L43.1836576,11.2965517 C43.1836576,11.462069 43.0599222,11.5862069 42.8949416,11.5862069 L36.336965,11.5862069 C36.1719844,11.5862069 36.048249,11.462069 36.048249,11.2965517 L36.048249,0.786206897 Z" class="ectlogo-Shape"></path>
                    <path d="M56.2583658,0.331034483 C57.8256809,0.331034483 59.0217899,0.827586207 60.0941634,1.82068966 C60.2178988,1.94482759 60.2178988,2.15172414 60.0941634,2.27586207 L58.8568093,3.55862069 C58.7330739,3.68275862 58.5680934,3.68275862 58.444358,3.55862069 C57.8669261,3.02068966 57.0832685,2.73103448 56.2996109,2.73103448 C54.52607,2.73103448 53.2062257,4.22068966 53.2062257,6 C53.2062257,7.77931034 54.52607,9.22758621 56.340856,9.22758621 C57.0832685,9.22758621 57.9081712,8.93793103 58.4856031,8.48275862 C58.6093385,8.4 58.8155642,8.4 58.8980545,8.48275862 L60.1354086,9.80689655 C60.259144,9.93103448 60.2178988,10.137931 60.1354086,10.2206897 C59.063035,11.2551724 57.7019455,11.7517241 56.2583658,11.7517241 C53.0824903,11.7517241 50.5252918,9.22758621 50.5252918,6.04137931 C50.5252918,2.85517241 53.0824903,0.331034483 56.2583658,0.331034483 Z" class="ectlogo-Shape"></path>
                    <path d="M63.2287938,0.786206897 C63.2287938,0.620689655 63.3525292,0.496551724 63.5175097,0.496551724 L68.2607004,0.496551724 C70.1579767,0.496551724 71.7252918,2.02758621 71.7252918,3.93103448 C71.7252918,5.37931034 70.7766537,6.57931034 69.3743191,7.11724138 L71.5603113,11.1724138 C71.6840467,11.3793103 71.5603113,11.6275862 71.2715953,11.6275862 L69.1680934,11.6275862 C69.044358,11.6275862 68.9618677,11.5448276 68.9206226,11.5034483 L66.8171206,7.28275862 L65.7035019,7.28275862 L65.7035019,11.337931 C65.7035019,11.5034483 65.5797665,11.6275862 65.414786,11.6275862 L63.5175097,11.6275862 C63.3525292,11.6275862 63.2287938,11.5034483 63.2287938,11.337931 L63.2287938,0.786206897 Z M68.0957198,5.25517241 C68.755642,5.25517241 69.2918288,4.63448276 69.2918288,3.97241379 C69.2918288,3.31034483 68.755642,2.77241379 68.0957198,2.77241379 L65.7447471,2.77241379 L65.7447471,5.25517241 L68.0957198,5.25517241 Z" class="ectlogo-Shape"></path>
                    <path d="M75.107393,0.786206897 C75.107393,0.620689655 75.2311284,0.496551724 75.3961089,0.496551724 L77.2933852,0.496551724 C77.4583658,0.496551724 77.5821012,0.620689655 77.5821012,0.786206897 L77.5821012,11.337931 C77.5821012,11.5034483 77.4583658,11.6275862 77.2933852,11.6275862 L75.3961089,11.6275862 C75.2311284,11.6275862 75.107393,11.5034483 75.107393,11.337931 L75.107393,0.786206897 Z" class="ectlogo-Shape"></path>
                    <path d="M86.4910506,0.331034483 C88.0583658,0.331034483 89.2544747,0.827586207 90.3268482,1.82068966 C90.4505837,1.94482759 90.4505837,2.15172414 90.3268482,2.27586207 L89.0894942,3.55862069 C88.9657588,3.68275862 88.8007782,3.68275862 88.6770428,3.55862069 C88.0996109,3.02068966 87.3159533,2.73103448 86.5322957,2.73103448 C84.7587549,2.73103448 83.4389105,4.22068966 83.4389105,6 C83.4389105,7.77931034 84.7587549,9.22758621 86.5735409,9.22758621 C87.3159533,9.22758621 88.140856,8.93793103 88.7182879,8.48275862 C88.8420233,8.4 89.048249,8.4 89.1307393,8.48275862 L90.3680934,9.80689655 C90.4918288,9.93103448 90.4505837,10.137931 90.3680934,10.2206897 C89.2957198,11.2551724 87.9346304,11.7517241 86.4910506,11.7517241 C83.3151751,11.7517241 80.7579767,9.22758621 80.7579767,6.04137931 C80.7579767,2.85517241 83.3151751,0.331034483 86.4910506,0.331034483 Z" class="ectlogo-Shape"></path>
                    <path d="M93.5027237,0.868965517 C93.5027237,0.662068966 93.6677043,0.496551724 93.87393,0.496551724 L95.7299611,0.496551724 C95.9361868,0.496551724 96.1011673,0.662068966 96.1011673,0.868965517 L96.1011673,5.04827586 L99.6070039,0.620689655 C99.6894942,0.537931034 99.8132296,0.455172414 99.8957198,0.455172414 L101.875486,0.455172414 C102.164202,0.455172414 102.329183,0.786206897 102.164202,1.03448276 L98.4521401,5.71034483 L102.494163,11.0068966 C102.659144,11.2551724 102.494163,11.5862069 102.205447,11.5862069 L100.019455,11.5862069 C99.8957198,11.5862069 99.7719844,11.5034483 99.7307393,11.462069 L96.1011673,6.49655172 L96.1011673,11.2551724 C96.1011673,11.462069 95.9361868,11.6275862 95.7299611,11.6275862 L93.87393,11.6275862 C93.6677043,11.6275862 93.5027237,11.462069 93.5027237,11.2551724 L93.5027237,0.868965517 Z" class="ectlogo-Shape"></path>
                    <path d="M105.422568,0.786206897 C105.422568,0.620689655 105.546304,0.496551724 105.711284,0.496551724 L112.269261,0.496551724 C112.434241,0.496551724 112.557977,0.620689655 112.557977,0.786206897 L112.557977,2.52413793 C112.557977,2.68965517 112.434241,2.8137931 112.269261,2.8137931 L107.856031,2.8137931 L107.856031,4.8 L111.485603,4.8 C111.650584,4.8 111.774319,4.92413793 111.774319,5.08965517 L111.774319,6.82758621 C111.774319,6.99310345 111.650584,7.11724138 111.485603,7.11724138 L107.856031,7.11724138 L107.856031,9.26896552 L112.269261,9.26896552 C112.434241,9.26896552 112.557977,9.39310345 112.557977,9.55862069 L112.557977,11.2965517 C112.557977,11.462069 112.434241,11.5862069 112.269261,11.5862069 L105.711284,11.5862069 C105.546304,11.5862069 105.422568,11.462069 105.422568,11.2965517 L105.422568,0.786206897 Z" class="ectlogo-Shape"></path>
                    <path d="M117.383658,2.8137931 L115.115175,2.8137931 C114.950195,2.8137931 114.826459,2.68965517 114.826459,2.52413793 L114.826459,0.786206897 C114.826459,0.620689655 114.950195,0.496551724 115.115175,0.496551724 L122.168093,0.496551724 C122.333074,0.496551724 122.456809,0.620689655 122.456809,0.786206897 L122.456809,2.52413793 C122.456809,2.68965517 122.333074,2.8137931 122.168093,2.8137931 L119.899611,2.8137931 L119.899611,11.2965517 C119.899611,11.462069 119.775875,11.5862069 119.610895,11.5862069 L117.713619,11.5862069 C117.548638,11.5862069 117.424903,11.462069 117.424903,11.2965517 L117.424903,2.8137931 L117.383658,2.8137931 Z" class="ectlogo-Shape"></path>
                    <path d="M131.448249,2.8137931 L129.179767,2.8137931 C129.014786,2.8137931 128.891051,2.68965517 128.891051,2.52413793 L128.891051,0.786206897 C128.891051,0.620689655 129.014786,0.496551724 129.179767,0.496551724 L136.232685,0.496551724 C136.397665,0.496551724 136.521401,0.620689655 136.521401,0.786206897 L136.521401,2.52413793 C136.521401,2.68965517 136.397665,2.8137931 136.232685,2.8137931 L133.964202,2.8137931 L133.964202,11.2965517 C133.964202,11.462069 133.840467,11.5862069 133.675486,11.5862069 L131.77821,11.5862069 C131.61323,11.5862069 131.489494,11.462069 131.489494,11.2965517 L131.489494,2.8137931 L131.448249,2.8137931 Z" class="ectlogo-Shape"></path>
                    <path d="M139.367315,0.786206897 C139.367315,0.620689655 139.491051,0.496551724 139.656031,0.496551724 L144.399222,0.496551724 C146.296498,0.496551724 147.863813,2.02758621 147.863813,3.93103448 C147.863813,5.37931034 146.915175,6.57931034 145.51284,7.11724138 L147.698833,11.1724138 C147.822568,11.3793103 147.698833,11.6275862 147.410117,11.6275862 L145.306615,11.6275862 C145.182879,11.6275862 145.100389,11.5448276 145.059144,11.5034483 L142.955642,7.28275862 L141.842023,7.28275862 L141.842023,11.337931 C141.842023,11.5034483 141.718288,11.6275862 141.553307,11.6275862 L139.656031,11.6275862 C139.491051,11.6275862 139.367315,11.5034483 139.367315,11.337931 L139.367315,0.786206897 Z M144.192996,5.25517241 C144.852918,5.25517241 145.389105,4.63448276 145.389105,3.97241379 C145.389105,3.31034483 144.852918,2.77241379 144.192996,2.77241379 L141.842023,2.77241379 L141.842023,5.25517241 L144.192996,5.25517241 Z" class="ectlogo-Shape"></path>
                    <path d="M149.802335,11.2137931 L154.751751,0.496551724 C154.792996,0.413793103 154.916732,0.331034483 155.040467,0.331034483 L155.205447,0.331034483 C155.329183,0.331034483 155.411673,0.413793103 155.494163,0.496551724 L160.44358,11.2137931 C160.52607,11.4206897 160.402335,11.6275862 160.154864,11.6275862 L158.381323,11.6275862 C158.092607,11.6275862 157.968872,11.5448276 157.845136,11.2137931 L157.267704,9.97241379 L152.936965,9.97241379 L152.359533,11.2551724 C152.277043,11.462069 152.112062,11.6275862 151.782101,11.6275862 L150.049805,11.6275862 C149.84358,11.6275862 149.719844,11.4206897 149.802335,11.2137931 Z M156.319066,7.82068966 L155.122957,5.2137931 L153.926848,7.82068966 L156.319066,7.82068966 Z" class="ectlogo-Shape"></path>
                    <path d="M163.000778,0.786206897 C163.000778,0.620689655 163.124514,0.496551724 163.289494,0.496551724 L165.18677,0.496551724 C165.351751,0.496551724 165.475486,0.620689655 165.475486,0.786206897 L165.475486,11.337931 C165.475486,11.5034483 165.351751,11.6275862 165.18677,11.6275862 L163.289494,11.6275862 C163.124514,11.6275862 163.000778,11.5034483 163.000778,11.337931 L163.000778,0.786206897 Z" class="ectlogo-Shape"></path>
                    <path d="M169.435019,0.620689655 C169.435019,0.455172414 169.558755,0.331034483 169.723735,0.331034483 L170.136187,0.331034483 L176.487938,6.45517241 L176.487938,0.786206897 C176.487938,0.620689655 176.611673,0.496551724 176.776654,0.496551724 L178.67393,0.496551724 C178.838911,0.496551724 178.962646,0.620689655 178.962646,0.786206897 L178.962646,11.5034483 C178.962646,11.6689655 178.838911,11.7931034 178.67393,11.7931034 L178.426459,11.7931034 C178.385214,11.7931034 178.261479,11.7517241 178.220233,11.7103448 L171.950973,5.37931034 L171.950973,11.337931 C171.950973,11.5034483 171.827237,11.6275862 171.662257,11.6275862 L169.764981,11.6275862 C169.6,11.6275862 169.476265,11.5034483 169.476265,11.337931 L169.435019,0.620689655 Z" class="ectlogo-Shape"></path>
                    <path d="M182.963424,0.786206897 C182.963424,0.620689655 183.08716,0.496551724 183.25214,0.496551724 L185.149416,0.496551724 C185.314397,0.496551724 185.438132,0.620689655 185.438132,0.786206897 L185.438132,11.337931 C185.438132,11.5034483 185.314397,11.6275862 185.149416,11.6275862 L183.25214,11.6275862 C183.08716,11.6275862 182.963424,11.5034483 182.963424,11.337931 L182.963424,0.786206897 Z" class="ectlogo-Shape"></path>
                    <path d="M189.438911,0.620689655 C189.438911,0.455172414 189.562646,0.331034483 189.727626,0.331034483 L190.140078,0.331034483 L196.491829,6.45517241 L196.491829,0.786206897 C196.491829,0.620689655 196.615564,0.496551724 196.780545,0.496551724 L198.677821,0.496551724 C198.842802,0.496551724 198.966537,0.620689655 198.966537,0.786206897 L198.966537,11.5034483 C198.966537,11.6689655 198.842802,11.7931034 198.677821,11.7931034 L198.43035,11.7931034 C198.389105,11.7931034 198.26537,11.7517241 198.224125,11.7103448 L191.954864,5.37931034 L191.954864,11.337931 C191.954864,11.5034483 191.831128,11.6275862 191.666148,11.6275862 L189.727626,11.6275862 C189.562646,11.6275862 189.438911,11.5034483 189.438911,11.337931 L189.438911,0.620689655 Z" class="ectlogo-Shape"></path>
                    <path d="M207.834241,0.331034483 C209.154086,0.331034483 210.638911,0.868965517 211.711284,1.82068966 C211.835019,1.94482759 211.876265,2.11034483 211.752529,2.23448276 L210.515175,3.55862069 C210.39144,3.68275862 210.226459,3.68275862 210.102724,3.55862069 C209.484047,3.02068966 208.782879,2.8137931 208.040467,2.8137931 C206.308171,2.8137931 204.905837,4.26206897 204.905837,6.04137931 C204.905837,7.77931034 206.308171,9.22758621 208.040467,9.22758621 C208.494163,9.22758621 208.989105,9.14482759 209.442802,8.97931034 L209.442802,8.06896552 L208.452918,8.06896552 C208.287938,8.06896552 208.164202,7.94482759 208.164202,7.77931034 L208.164202,6.20689655 C208.164202,6.04137931 208.287938,5.91724138 208.452918,5.91724138 L211.628794,5.91724138 C211.793774,5.91724138 211.91751,6.04137931 211.91751,6.20689655 L211.91751,10.5103448 C211.91751,10.5931034 211.835019,10.7172414 211.793774,10.7586207 C211.793774,10.7586207 210.143969,11.7931034 207.875486,11.7931034 C204.699611,11.7931034 202.183658,9.26896552 202.183658,6.08275862 C202.183658,2.89655172 204.699611,0.331034483 207.834241,0.331034483 Z" class="ectlogo-Shape"></path>
                </g>
                <g class="ect-main-color" transform="translate(0.000000, 12.000000)">
                    <polygon class="ectlogo-Shape" points="242.669388 48.9162393 158.859184 48.9162393 158.859184 47.0316239 240.85102 47.0316239 240.85102 1.92649573 153.858673 1.92649573 153.858673 0.0418803419 242.669388 0.0418803419"></polygon>
                    <polygon class="ectlogo-Shape" points="81.9091837 48.9162393 0 48.9162393 0 0.0418803419 86.9923469 0.0418803419 86.9923469 1.92649573 1.85969388 1.92649573 1.85969388 47.0316239 81.9091837 47.0316239"></polygon>
                </g>
                <g class="ect-main-color" transform="translate(94.000000, 5.000000)">
                    <rect class="ectlogo-Rectangle-path" transform="translate(9.620872, 7.041874) rotate(-17.980187) translate(-9.620872, -7.041874) " x="8.24081878" y="3.44173517" width="2.76010644" height="7.20027766"></rect>
                    <rect class="ectlogo-Rectangle-path" transform="translate(12.932922, 5.960404) rotate(-17.987405) translate(-12.932922, -5.960404) " x="11.5529574" y="2.36049643" width="2.75992914" height="7.19981514"></rect>
                    <path d="M25.96,2.36 L25.6,1.28 C25.52,0.96 25.16,0.8 24.88,0.92 L21.32,2.08 C21.08,2.16 20.84,2.08 20.68,1.88 L19.64,0.48 C19.48,0.28 19.24,0.2 19,0.28 L17.92,0.64 L17.16,0.88 L19.4,7.72 L20.16,7.48 L21.24,7.12 C21.48,7.04 21.64,6.84 21.64,6.56 L21.64,4.84 C21.64,4.6 21.8,4.36 22.04,4.28 L25.6,3.12 C25.88,3 26.04,2.64 25.96,2.36 Z" class="ectlogo-Shape"></path>
                    <rect class="ectlogo-Rectangle-path" transform="translate(16.249342, 4.883986) rotate(-17.981956) translate(-16.249342, -4.883986) " x="14.86942" y="1.28418959" width="2.75984392" height="7.19959283"></rect>
                    <path d="M6.48,4.28 L5.96,4.44 L4.76,4.84 C4.52,4.92 4.36,5.16 4.36,5.4 L4.44,7.08 C4.44,7.32 4.28,7.56 4.04,7.64 L0.48,8.8 C0.16,8.88 -8.32667268e-15,9.24 0.12,9.52 L0.48,10.6 C0.56,10.92 0.92,11.08 1.2,10.96 L4.76,9.8 C5,9.72 5.28,9.8 5.4,10.04 L6.32,11.44 C6.48,11.64 6.72,11.76 6.96,11.68 L8.16,11.28 L8.68,11.12 L6.48,4.28 Z" class="ectlogo-Shape"></path>
                </g>
                <g class="ect-main-color" transform="translate(122.000000, 0.000000)">
                    <rect class="ectlogo-Rectangle-path" transform="translate(11.785543, 8.605955) rotate(-55.062427) translate(-11.785543, -8.605955) " x="8.06129877" y="7.24196288" width="7.44848936" height="2.72798517"></rect>
                    <rect class="ectlogo-Rectangle-path" transform="translate(8.836908, 6.613113) rotate(-55.062427) translate(-8.836908, -6.613113) " x="5.1126629" y="5.24912009" width="7.44848936" height="2.72798517"></rect>
                    <path d="M23.4206897,14.944186 L20.2344828,12.8093023 C20.0275862,12.6511628 19.9448276,12.4139535 19.9862069,12.1767442 L20.5241379,10.5162791 C20.6068966,10.2790698 20.5241379,10.0418605 20.2758621,9.88372093 L19.3241379,9.25116279 L18.662069,8.81627907 L14.4,14.6674419 L15.062069,15.1023256 L16.0137931,15.7348837 C16.2206897,15.8930233 16.5103448,15.8534884 16.7172414,15.7348837 L18.1655172,14.7069767 C18.3724138,14.5488372 18.662069,14.5488372 18.8689655,14.7069767 L22.0551724,16.8418605 C22.3448276,17.0395349 22.7172414,16.9604651 22.8827586,16.6837209 L23.5862069,15.7348837 C23.7517241,15.4976744 23.6689655,15.1418605 23.4206897,14.944186 Z" class="ectlogo-Shape"></path>
                    <path d="M9.14482759,2.49069767 L8.68965517,2.1744186 L7.65517241,1.4627907 C7.44827586,1.30465116 7.15862069,1.34418605 6.95172414,1.50232558 L5.62758621,2.53023256 C5.42068966,2.68837209 5.13103448,2.68837209 4.92413793,2.56976744 L1.77931034,0.474418605 C1.48965517,0.276744186 1.11724138,0.355813953 0.951724138,0.63255814 L0.248275862,1.58139535 C0.0413793103,1.85813953 0.124137931,2.21395349 0.413793103,2.37209302 L3.55862069,4.46744186 C3.76551724,4.6255814 3.88965517,4.90232558 3.76551724,5.13953488 L3.1862069,6.68139535 C3.10344828,6.91860465 3.1862069,7.19534884 3.39310345,7.35348837 L4.42758621,8.06511628 L4.88275862,8.38139535 L9.14482759,2.49069767 Z" class="ectlogo-Shape"></path>
                    <rect class="ectlogo-Rectangle-path" transform="translate(14.723996, 10.543746) rotate(-55.062427) translate(-14.723996, -10.543746) " x="10.9997512" y="9.17975334" width="7.44848936" height="2.72798517"></rect>
                </g>
                <g class="ectlogo-Group" transform="translate(89.000000, 54.000000)" fill="#BB812B">
                    <path d="M0.0409395973,7.53684211 L3.27516779,0.421052632 C3.31610738,0.336842105 3.39798658,0.294736842 3.43892617,0.294736842 L3.56174497,0.294736842 C3.64362416,0.294736842 3.72550336,0.336842105 3.72550336,0.421052632 L6.95973154,7.53684211 C7.04161074,7.66315789 6.95973154,7.83157895 6.79597315,7.83157895 L5.64966443,7.83157895 C5.44496644,7.83157895 5.36308725,7.74736842 5.28120805,7.57894737 L4.91275168,6.73684211 L2.12885906,6.73684211 L1.76040268,7.57894737 C1.71946309,7.70526316 1.5966443,7.83157895 1.39194631,7.83157895 L0.245637584,7.83157895 C0.0818791946,7.83157895 -4.81559237e-15,7.66315789 0.0409395973,7.53684211 Z M4.29865772,5.26315789 L3.52080537,3.49473684 L2.74295302,5.26315789 L4.29865772,5.26315789 Z" class="ectlogo-Shape"></path>
                    <path d="M8.39261745,0.589473684 C8.39261745,0.463157895 8.47449664,0.378947368 8.59731544,0.378947368 L9.86644295,0.378947368 C9.98926174,0.378947368 10.0711409,0.463157895 10.0711409,0.589473684 L10.0711409,4.88421053 C10.0711409,5.64210526 10.6033557,6.23157895 11.3402685,6.23157895 C12.0771812,6.23157895 12.609396,5.64210526 12.609396,4.88421053 L12.609396,0.589473684 C12.609396,0.463157895 12.6912752,0.378947368 12.814094,0.378947368 L14.0832215,0.378947368 C14.2060403,0.378947368 14.2879195,0.463157895 14.2879195,0.589473684 L14.2879195,4.96842105 C14.2879195,6.56842105 12.9778523,7.91578947 11.3402685,7.91578947 C9.74362416,7.91578947 8.43355705,6.56842105 8.43355705,4.96842105 L8.43355705,0.589473684 L8.39261745,0.589473684 Z" class="ectlogo-Shape"></path>
                    <path d="M16.2939597,6.82105263 L16.7852349,5.93684211 C16.8671141,5.81052632 17.0718121,5.81052632 17.1536913,5.85263158 C17.1946309,5.89473684 17.9315436,6.44210526 18.6275168,6.44210526 C19.0369128,6.44210526 19.3234899,6.18947368 19.3234899,5.81052632 C19.3234899,5.34736842 18.9550336,5.01052632 18.2590604,4.75789474 C17.3583893,4.37894737 16.2530201,3.70526316 16.2530201,2.4 C16.2530201,1.34736842 17.0308725,0.294736842 18.6275168,0.294736842 C19.6919463,0.294736842 20.5107383,0.842105263 20.838255,1.09473684 C20.9610738,1.17894737 20.9610738,1.34736842 20.9201342,1.43157895 L20.3879195,2.23157895 C20.3060403,2.35789474 20.1422819,2.44210526 20.0194631,2.35789474 C19.9375839,2.31578947 19.1597315,1.72631579 18.5456376,1.72631579 C18.1771812,1.72631579 17.890604,1.97894737 17.890604,2.27368421 C17.890604,2.65263158 18.2181208,2.94736842 18.9959732,3.28421053 C19.8147651,3.62105263 21.0838926,4.25263158 21.0838926,5.68421053 C21.0838926,6.77894737 20.1832215,7.87368421 18.6684564,7.87368421 C17.3174497,7.87368421 16.5805369,7.28421053 16.3348993,7.07368421 C16.2530201,6.98947368 16.2120805,6.94736842 16.2939597,6.82105263 Z" class="ectlogo-Shape"></path>
                    <path d="M24.0724832,1.97894737 L22.5986577,1.97894737 C22.4758389,1.97894737 22.3939597,1.89473684 22.3939597,1.76842105 L22.3939597,0.631578947 C22.3939597,0.505263158 22.4758389,0.421052632 22.5986577,0.421052632 L27.1838926,0.421052632 C27.3067114,0.421052632 27.3885906,0.505263158 27.3885906,0.631578947 L27.3885906,1.76842105 C27.3885906,1.89473684 27.3067114,1.97894737 27.1838926,1.97894737 L25.7100671,1.97894737 L25.7100671,7.62105263 C25.7100671,7.74736842 25.6281879,7.83157895 25.5053691,7.83157895 L24.2771812,7.83157895 C24.1543624,7.83157895 24.0724832,7.74736842 24.0724832,7.62105263 L24.0724832,1.97894737 Z" class="ectlogo-Shape"></path>
                    <path d="M29.2308725,0.589473684 C29.2308725,0.463157895 29.3127517,0.378947368 29.4355705,0.378947368 L32.5060403,0.378947368 C33.7342282,0.378947368 34.7577181,1.38947368 34.7577181,2.65263158 C34.7577181,3.62105263 34.1436242,4.42105263 33.242953,4.8 L34.6348993,7.49473684 C34.7167785,7.62105263 34.6348993,7.78947368 34.4711409,7.78947368 L33.1201342,7.78947368 C33.038255,7.78947368 32.9563758,7.74736842 32.9563758,7.70526316 L31.6053691,4.88421053 L30.909396,4.88421053 L30.909396,7.57894737 C30.909396,7.70526316 30.8275168,7.78947368 30.704698,7.78947368 L29.4765101,7.78947368 C29.3536913,7.78947368 29.2718121,7.70526316 29.2718121,7.57894737 L29.2718121,0.589473684 L29.2308725,0.589473684 Z M32.3422819,3.57894737 C32.7516779,3.57894737 33.1201342,3.15789474 33.1201342,2.73684211 C33.1201342,2.27368421 32.7516779,1.93684211 32.3422819,1.93684211 L30.8275168,1.93684211 L30.8275168,3.57894737 L32.3422819,3.57894737 Z" class="ectlogo-Shape"></path>
                    <path d="M35.985906,7.53684211 L39.2201342,0.421052632 C39.2610738,0.336842105 39.342953,0.294736842 39.3838926,0.294736842 L39.5067114,0.294736842 C39.5885906,0.294736842 39.6704698,0.336842105 39.6704698,0.421052632 L42.904698,7.53684211 C42.9865772,7.66315789 42.8637584,7.83157895 42.7409396,7.83157895 L41.5946309,7.83157895 C41.3899329,7.83157895 41.3080537,7.74736842 41.2261745,7.57894737 L40.8577181,6.73684211 L38.0738255,6.73684211 L37.7053691,7.57894737 C37.6644295,7.70526316 37.5416107,7.83157895 37.3369128,7.83157895 L36.190604,7.83157895 C36.0268456,7.83157895 35.9449664,7.66315789 35.985906,7.53684211 Z M40.2436242,5.26315789 L39.4657718,3.49473684 L38.6879195,5.26315789 L40.2436242,5.26315789 Z" class="ectlogo-Shape"></path>
                    <path d="M44.5422819,0.589473684 C44.5422819,0.463157895 44.6241611,0.378947368 44.7469799,0.378947368 L45.9751678,0.378947368 C46.0979866,0.378947368 46.1798658,0.463157895 46.1798658,0.589473684 L46.1798658,6.23157895 L48.6362416,6.23157895 C48.7590604,6.23157895 48.8409396,6.31578947 48.8409396,6.44210526 L48.8409396,7.57894737 C48.8409396,7.70526316 48.7590604,7.78947368 48.6362416,7.78947368 L44.7469799,7.78947368 C44.6241611,7.78947368 44.5422819,7.70526316 44.5422819,7.57894737 L44.5422819,0.589473684 Z" class="ectlogo-Shape"></path>
                    <path d="M50.6013423,0.589473684 C50.6013423,0.463157895 50.6832215,0.378947368 50.8060403,0.378947368 L52.0342282,0.378947368 C52.157047,0.378947368 52.2389262,0.463157895 52.2389262,0.589473684 L52.2389262,7.62105263 C52.2389262,7.74736842 52.157047,7.83157895 52.0342282,7.83157895 L50.8060403,7.83157895 C50.6832215,7.83157895 50.6013423,7.74736842 50.6013423,7.62105263 L50.6013423,0.589473684 Z" class="ectlogo-Shape"></path>
                    <path d="M53.8765101,7.53684211 L57.1107383,0.421052632 C57.1516779,0.336842105 57.233557,0.294736842 57.2744966,0.294736842 L57.3973154,0.294736842 C57.4791946,0.294736842 57.5610738,0.336842105 57.5610738,0.421052632 L60.795302,7.53684211 C60.8771812,7.66315789 60.795302,7.83157895 60.6315436,7.83157895 L59.4852349,7.83157895 C59.2805369,7.83157895 59.1986577,7.74736842 59.1167785,7.57894737 L58.7483221,6.73684211 L55.9644295,6.73684211 L55.5959732,7.57894737 C55.5550336,7.70526316 55.4322148,7.83157895 55.2275168,7.83157895 L54.0402685,7.83157895 C53.9174497,7.83157895 53.8355705,7.66315789 53.8765101,7.53684211 Z M58.1342282,5.26315789 L57.3563758,3.49473684 L56.5785235,5.26315789 L58.1342282,5.26315789 Z" class="ectlogo-Shape"></path>
                </g>
            </g>
        </g>
    </g>
</svg>