<svg class="w-48 max-w-3/4 h-auto" width="192" height="80" viewBox="0 0 250 60"
    xmlns="http://www.w3.org/2000/svg" fill-rule="evenodd" clip-rule="evenodd"
    stroke-linejoin="round" stroke-miterlimit="2">
    <path
        d="M89.445 8.135v3.25h-7.818v3.952h7.818v3.25h-7.818v7.28h-4.43V8.135h12.248zm16.652 14.482v3.25H92.989V8.135h12.925v3.25H97.42v3.718h8.104v3.25H97.42v4.264h8.678-.001zm3.355-14.482h7.844c3.023 0 5.42.832 7.193 2.47 1.746 1.664 2.632 3.796 2.632 6.422 0 2.756-.886 4.914-2.684 6.474-1.772 1.586-4.326 2.366-7.636 2.366h-7.349V8.135zm4.43 3.25v11.232h2.893c1.876 0 3.31-.52 4.3-1.534.99-1.04 1.485-2.392 1.485-4.082 0-1.742-.495-3.12-1.511-4.108-.99-1.014-2.45-1.508-4.326-1.508h-2.841zm29.65 11.232v3.25h-13.108V8.135h12.926v3.25h-8.496v3.718h8.105v3.25h-8.105v4.264h8.678zm3.383-14.482h7.948c1.72 0 3.127.494 4.195 1.482 1.069.988 1.616 2.21 1.616 3.614 0 1.95-1.016 3.406-3.049 4.342.886.39 1.746 1.482 2.554 3.276a192.952 192.952 0 0 0 2.32 5.018h-4.874c-.286-.572-.808-1.69-1.511-3.328-.73-1.664-1.33-2.704-1.85-3.172-.522-.468-1.069-.702-1.642-.702h-1.277v7.202h-4.43V8.135zm4.43 3.25v4.03h2.345c.756 0 1.33-.182 1.772-.52.443-.364.652-.858.652-1.508 0-1.326-.834-2.002-2.528-2.002h-2.241zm23.603-3.25l7.896 17.732h-4.769l-1.459-3.51h-7.948l-1.33 3.51h-4.69l7.166-17.732h5.134zm.365 11.128l-2.867-6.89-2.606 6.89h5.473zM197.82 8.135v3.25h-6.437v14.482h-4.43V11.385h-6.437v-3.25h17.304zm2.846 0h4.43v17.732h-4.43V8.135zm17.956-.234c3.023 0 5.472.91 7.349 2.73 1.876 1.82 2.814 3.952 2.814 6.37 0 2.47-.938 4.576-2.84 6.396-1.903 1.794-4.352 2.704-7.323 2.704-3.023 0-5.473-.91-7.35-2.704-1.902-1.794-2.84-3.926-2.84-6.396 0-2.418.938-4.55 2.815-6.37 1.876-1.82 4.326-2.73 7.375-2.73zm0 14.508c1.668 0 3.023-.494 4.065-1.482 1.016-.988 1.538-2.314 1.538-3.926s-.522-2.938-1.538-3.926c-1.042-.988-2.397-1.482-4.065-1.482-1.694 0-3.05.494-4.092 1.482-1.016.988-1.537 2.314-1.537 3.926s.52 2.938 1.537 3.926c1.043.988 2.398 1.482 4.092 1.482zm31.376-14.274v17.732h-3.727l-9.824-11.362v11.362h-4.43V8.135h4.065l9.486 10.842V8.135h4.43zM86.761 40.713l5.707-6.578h3.857v17.732h-4.43V40.791L87.1 46.355h-.678l-4.795-5.564v11.076h-4.43V34.135h3.857l5.707 6.578zm23.892-6.578l7.897 17.732h-4.77l-1.459-3.51h-7.948l-1.33 3.51h-4.69l7.167-17.732h5.133zm.365 11.128l-2.866-6.89-2.606 6.89h5.472zm27.593-11.128v17.732h-3.726l-9.825-11.362v11.362h-4.43V34.135h4.065l9.486 10.842V34.135h4.43zm14.393 0l7.896 17.732h-4.769l-1.46-3.51h-7.947l-1.33 3.51h-4.69l7.166-17.732h5.134zm.365 11.128l-2.867-6.89-2.606 6.89h5.473zm25.508-9.906v3.874c-2.267-1.092-4.483-1.638-6.646-1.638-2.084 0-3.7.52-4.82 1.586-1.121 1.04-1.695 2.392-1.695 4.004 0 1.56.574 2.808 1.694 3.796 1.12.962 2.606 1.43 4.457 1.43.964 0 1.954-.208 2.944-.624v-2.08h-2.58v-3.25h7.01v7.254c-.703.702-1.772 1.274-3.205 1.716-1.433.442-2.866.676-4.274.676-3.1 0-5.629-.858-7.635-2.574-1.98-1.69-2.971-3.874-2.971-6.5 0-2.678.99-4.888 2.97-6.578 2.007-1.69 4.587-2.548 7.74-2.548 2.607 0 4.952.494 7.01 1.456h.001zm17.383 13.26v3.25h-13.108V34.135h12.926v3.25h-8.496v3.718h8.105v3.25h-8.105v4.264h8.678zm3.383-14.482h7.948c1.72 0 3.128.494 4.196 1.482 1.068.988 1.616 2.21 1.616 3.614 0 1.95-1.017 3.406-3.05 4.342.887.39 1.747 1.482 2.555 3.276a192.923 192.923 0 0 0 2.319 5.018h-4.873c-.287-.572-.808-1.69-1.512-3.328-.73-1.664-1.329-2.704-1.85-3.172-.521-.468-1.069-.702-1.642-.702h-1.277v7.202h-4.43V34.135zm4.43 3.25v4.03h2.346c.755 0 1.329-.182 1.772-.52.443-.364.651-.858.651-1.508 0-1.326-.834-2.002-2.528-2.002h-2.241z"
        fill="#fff" fill-rule="nonzero" />
    <g id="Layer_1-2" fill="#f08428" fill-rule="nonzero">
        <path d="M235.5 10.8L194.3 0l-20.8 18.87 43.538 16.192L235.5 10.8z"
            transform="translate(-3.375) scale(.19176)" />
        <path
            d="M327.9 154.9L295 91l-9.9-68.6-31.7 45.8-33.2-32-43.9-15.8-17.7-14.6-52.7 28.1-67.1 11.8-9.8 84.7-9.9 18.5L34 161.2l29.6-5.9 86.5 6.7 20.2 33.5 23.2-7.4 8.3 58.3 65.4 11.4 55.2-71.9 5.5-31zM222.5 309.4l11.4 3.5 14-26.9-27.9-8.8 2.5 32.2z"
            transform="translate(-3.375) scale(.19176)" />
        <path d="M104.4 31.1l-67 11.8 111.3 116.3L157.1 3l-52.7 28.1z"
            transform="translate(-3.375) scale(.19176)" />
        <path d="M62.2 152.5l86.5 6.7L37.4 42.9l24.8 109.6z"
            transform="translate(-3.375) scale(.19176)" />
        <path d="M27.6 127.6l34.6 24.9L37.4 42.9l-9.8 84.7z"
            transform="translate(-3.375) scale(.19176)" />
        <path
            d="M17.6 146.1l15 12.3 29.6-5.9-34.6-24.9-10 18.5zm266-126.5l-31.7 45.8-59.8 119.9 101.4-97.1-9.9-68.6z"
            transform="translate(-3.375) scale(.19176)" />
        <path
            d="M192.1 185.3l8.2 58.4 65.4 11.4 55.3-71.9-128.9 2.1zm134.4-33.2l-33-63.9-101.4 97.1 128.9-2.1 5.5-31.1zM221 306.6l11.5 3.5 14-26.9-28-8.8 2.5 32.2zm-72.3-147.4l20.2 33.5 23.2-7.4 59.8-119.9-103.2 93.8zm70-125.8l-43.8-15.8 77 47.8-33.2-32z"
            transform="translate(-3.375) scale(.19176)" />
        <path d="M174.9 17.6L157.1 3l-8.4 156.2 103.2-93.8-77-47.8z"
            transform="translate(-3.375) scale(.19176)" />
    </g>
</svg>