<svg viewBox="0 0 227 102" version="1.1" xmlns="http://www.w3.org/2000/svg">
    <g id="HGWA-Logo-Yellow" stroke="none" stroke-width="1" fill="none" fill-rule="evenodd">
        <g id="HGWA-Website" fill-rule="nonzero">
            <g id="HGW_landgroupwa-logo">
                <path d="M51.9682035,43.9217082 C52.5546502,43.0857329 53.3365793,42.0407636 53.9230261,40.9957943 C54.7049548,39.7418309 55.6823663,38.487868 56.6597774,37.024911 L51.9682035,43.9217082 Z" id="XMLID_24_" fill="#231F20"></path>
                <path d="M0.382568982,79.1482416 C3.41339303,63.0821142 17.3551836,57.9978966 22.0024472,43.5587189 C19.5777879,57.1844219 4.01955782,65.9292761 6.44421707,84.6391967 C7.85860163,95.6211066 18.9716231,100.501955 33.9236884,98.061531 C33.9236884,98.061531 28.4682051,99.6884804 24.0229965,99.6884804 C19.5777879,99.8918491 19.1736781,99.8918491 16.5469639,99.4851116 C7.85860163,98.061531 1.99900847,93.9941568 0.382568982,85.0459339 C-0.0215408895,83.4189845 -0.223595826,82.1987723 0.382568982,79.1482416" id="XMLID_23_" fill="#231F20"></path>
                <path d="M19.8489666,38.677715 C16.6337621,42.7754837 9.39955194,45.2341451 2.16534181,43.1852606 C5.58149661,41.1363764 6.98814859,40.7265996 7.79194971,38.06305 C8.19385028,36.8337191 8.19385028,35.3995003 9.60050223,34.5799465 C11.0071542,33.7603928 12.8157067,34.1701697 13.8204581,34.7848349 C12.4138062,41.1363764 18.2413643,40.3168227 19.8489666,38.677715" id="XMLID_22_" fill="#231F20"></path>
                <path d="M66.2250569,56.5118604 C66.2250569,56.5118604 68.6534776,49.9929859 71.2842665,42.0481076 C74.9268976,31.251222 79.5813709,17.1948991 80.5932128,11.490884 C81.200318,8.63887642 81.8074231,5.78686891 79.9861076,4.9720096 C77.9624235,3.95343546 71.6890035,9.45373573 68.8558461,12.1020285 C60.9634787,19.2320473 52.2616376,28.6029293 45.7858491,35.1218037 C48.6190065,20.8617659 48.6190065,8.84259126 48.2142699,2.93486134 C48.0119013,-0.120861033 44.9763754,-7.25087992 19.2755895,23.7137735 C37.084008,25.1397773 31.4176931,45.9186892 27.9774304,55.4932862 C22.9182206,69.1421795 16.2400636,75.8647687 16.2400636,75.8647687 C21.7040102,72.4016168 28.3821672,62.8270198 30.4058511,60.382442 C34.453219,54.8821418 37.2863765,50.6041304 42.143218,43.6778262 C44.7740073,40.418389 64.808478,14.954036 72.0937402,17.3986139 C79.7837391,20.2506215 64.2013728,56.1044306 66.2250569,56.5118604 M47.202428,36.955237 L42.3455865,43.4741115 C42.9526917,42.6592524 43.762165,41.6406782 44.3692702,40.622104 C45.1787439,39.3998151 46.1905858,38.1775259 47.202428,36.955237" id="Shape" fill="#231F20"></path>
                <path d="M25.2623211,33.1994093 C26.7975146,30.3680925 28.140809,32.1104413 28.140809,32.1104413 C28.3327082,33.6349965 25.2623211,33.1994093 25.2623211,33.1994093" id="XMLID_18_" fill="#231F20"></path>
                <path d="M158.548342,78.3720394 C158.951196,78.3720394 159.152623,78.5763712 159.152623,78.9850343 L159.152623,86.7496406 C159.152623,90.22328 157.138352,93.2882562 150.491256,93.2882562 C143.642733,93.2882562 141.829889,90.4276118 141.829889,86.7496406 L141.829889,68.9727793 C141.829889,65.4991399 143.84416,62.4341637 150.491256,62.4341637 C157.339779,62.4341637 159.152623,65.2948081 159.152623,68.9727793 L159.152623,71.0160967 C159.152623,71.4247602 158.951196,71.629092 158.548342,71.629092 L156.936925,71.629092 C156.53407,71.629092 156.332643,71.4247602 156.332643,71.0160967 L156.332643,69.3814429 C156.332643,66.929462 154.922653,65.0904764 150.491256,65.0904764 C146.059859,65.0904764 144.649869,66.7251302 144.649869,69.3814429 L144.649869,86.1366453 C144.649869,88.5886262 146.059859,90.4276118 150.491256,90.4276118 C154.922653,90.4276118 156.332643,88.792958 156.332643,86.1366453 L156.332643,81.0283521 L150.89411,81.0283521 C150.491256,81.0283521 150.289829,80.8240203 150.289829,80.4153568 L150.289829,78.9850343 C150.289829,78.5763712 150.491256,78.3720394 150.89411,78.3720394 L158.548342,78.3720394 Z" id="XMLID_17_" fill="#FEC221"></path>
                <path d="M173.227345,71.2400157 L173.227345,72.6751681 C173.227345,73.0852117 173.022133,73.2902331 172.611709,73.2902331 C169.533527,73.495255 166.660557,75.3404509 165.634496,76.1605378 L165.634496,91.9472125 C165.634496,92.3572558 165.429284,92.5622776 165.01886,92.5622776 L163.377163,92.5622776 C162.966738,92.5622776 162.761526,92.3572558 162.761526,91.9472125 L162.761526,71.4450375 C162.761526,71.0349939 162.966738,70.8299725 163.377163,70.8299725 L165.01886,70.8299725 C165.429284,70.8299725 165.634496,71.0349939 165.634496,71.4450375 L165.839708,73.7002768 C167.070981,72.6751681 169.533527,70.4199288 172.816921,70.4199288 C173.022133,70.6249506 173.227345,70.8299725 173.227345,71.2400157" id="XMLID_16_" fill="#FEC221"></path>
                <path d="M174.670906,76.5115496 C174.670906,73.2380458 176.706698,70.7829181 182.610493,70.7829181 C188.310709,70.7829181 190.550079,73.033452 190.550079,76.5115496 L190.550079,87.5596248 C190.550079,90.8331286 188.310709,93.2882562 182.610493,93.2882562 C176.910277,93.2882562 174.670906,91.0377224 174.670906,87.5596248 L174.670906,76.5115496 Z M187.699971,76.7161438 C187.699971,74.6702039 186.478497,73.44264 182.610493,73.44264 C178.946068,73.44264 177.521014,74.6702039 177.521014,76.7161438 L177.521014,87.3550306 C177.521014,89.4009705 178.742489,90.8331286 182.610493,90.8331286 C186.274917,90.8331286 187.699971,89.6055644 187.699971,87.3550306 L187.699971,76.7161438 Z" id="Shape" fill="#FEC221"></path>
                <path d="M205.808521,90.2844364 C204.798029,91.3001405 202.574944,92.9252669 198.93717,92.9252669 C195.097297,92.9252669 193.076312,90.6907181 193.076312,87.6436056 L193.076312,71.5954814 C193.076312,71.1891998 193.27841,70.986059 193.682607,70.986059 L195.299396,70.986059 C195.703593,70.986059 195.905692,71.1891998 195.905692,71.5954814 L195.905692,86.8310424 C195.905692,88.8624505 196.916184,90.0812956 199.543466,90.0812956 C202.574944,90.0812956 204.59593,88.4561688 205.404324,87.6436056 L205.404324,71.3923406 C205.404324,70.986059 205.606423,70.7829181 206.01062,70.7829181 L207.627409,70.7829181 C208.031606,70.7829181 208.233704,70.986059 208.233704,71.3923406 L208.233704,91.7064221 C208.233704,92.1127037 208.031606,92.3158445 207.627409,92.3158445 L206.01062,92.3158445 C205.606423,92.3158445 205.404324,92.1127037 205.404324,91.7064221 L205.808521,90.2844364 Z" id="XMLID_13_" fill="#FEC221"></path>
                <path d="M214.303223,71.7964598 L214.303223,73.4181263 C215.51244,72.4045846 217.729337,70.7829181 221.356988,70.7829181 C225.387711,70.7829181 227,73.0127097 227,76.4587513 L227,87.6077089 C227,90.8510421 225.186175,93.2835421 221.356988,93.2835421 C217.930874,93.2835421 215.51244,91.6618757 214.303223,90.8510421 L214.303223,101.391875 C214.303223,101.797292 214.101687,102 213.698615,102 L212.086326,102 C211.683253,102 211.481717,101.797292 211.481717,101.391875 L211.481717,71.7964598 C211.481717,71.3910432 211.683253,71.1883348 212.086326,71.1883348 L213.698615,71.1883348 C214.101687,71.1883348 214.303223,71.3910432 214.303223,71.7964598 Z M224.38003,76.864168 C224.38003,75.039793 223.372349,73.6208347 220.75238,73.6208347 C217.729337,73.6208347 215.51244,75.2425012 214.504759,76.0533347 L214.504759,87.8104174 C215.51244,88.6212506 217.729337,90.2429174 220.75238,90.2429174 C223.372349,90.2429174 224.38003,88.8239591 224.38003,86.9995842 L224.38003,76.864168 Z" id="Shape" fill="#FEC221"></path>
            </g>
            <path d="M52.9127732,63.6729704 L52.9127732,75.1899672 L64.1506233,75.1899672 L64.1506233,63.6729704 C64.1506233,63.0598981 64.3667356,62.797153 64.9286281,62.797153 L67.608423,62.797153 C68.1703155,62.797153 68.3864282,63.0598981 68.3864282,63.6729704 L68.3864282,91.6991227 C68.3864282,92.312195 68.1703155,92.5749401 67.608423,92.5749401 L64.9286281,92.5749401 C64.3667356,92.5749401 64.1506233,92.312195 64.1506233,91.6991227 L64.1506233,78.824609 L52.9127732,78.824609 L52.9127732,91.6991227 C52.9127732,92.312195 52.7398833,92.5749401 52.1347681,92.5749401 L49.4981959,92.5749401 C48.9363034,92.5749401 48.7201908,92.312195 48.7201908,91.6991227 L48.7201908,63.6729704 C48.7201908,63.0598981 48.9363034,62.797153 49.4981959,62.797153 L52.1347681,62.797153 C52.7398833,62.797153 52.9127732,63.0598981 52.9127732,63.6729704 Z M70.5619604,86.9259187 L70.5619604,76.5036931 C70.5619604,72.9128426 73.1120882,70.5043449 79.2064604,70.5043449 C85.300833,70.5043449 87.8509604,72.9128426 87.8509604,76.5036931 L87.8509604,86.9259187 C87.8509604,90.5167696 85.300833,92.9252669 79.2064604,92.9252669 C73.1120882,92.9252669 70.5619604,90.5167696 70.5619604,86.9259187 Z M83.744823,86.5755916 L83.744823,76.8540202 C83.744823,74.9710131 82.4481482,73.9200323 79.2064604,73.9200323 C75.964773,73.9200323 74.6680981,74.9710131 74.6680981,76.8540202 L74.6680981,86.5755916 C74.6680981,88.4585987 75.964773,89.5095795 79.2064604,89.5095795 C82.4481482,89.5095795 83.744823,88.4585987 83.744823,86.5755916 Z M90.3722728,70.8546717 L92.6630655,70.8546717 C93.2681804,70.8546717 93.4410703,71.1174172 93.484293,71.6866984 L93.5707378,73.088006 C94.7377455,72.0808159 96.8988704,70.5043449 100.486338,70.5043449 C103.2958,70.5043449 105.154368,71.6866984 106.018818,73.4821238 C107.056158,72.5625154 109.303728,70.5043449 113.409865,70.5043449 C117.429558,70.5043449 119.54746,72.8690516 119.54746,76.1095756 L119.54746,91.6991227 C119.54746,92.312195 119.288125,92.5749401 118.726233,92.5749401 L116.26255,92.5749401 C115.657435,92.5749401 115.3981,92.312195 115.3981,91.6991227 L115.3981,77.1167653 C115.3981,75.3213399 114.576873,74.2265685 112.199635,74.2265685 C109.34695,74.2265685 107.358715,75.7592484 106.537488,76.5036931 C106.580711,76.6788568 106.580711,76.8978109 106.580711,77.0729743 L106.580711,91.6991227 C106.580711,92.312195 106.364598,92.5749401 105.802705,92.5749401 L103.2958,92.5749401 C102.733908,92.5749401 102.474573,92.312195 102.474573,91.6991227 L102.474573,77.1167653 C102.474573,75.3213399 101.653345,74.2265685 99.2761078,74.2265685 C96.5098678,74.2265685 94.5216329,75.7154577 93.657183,76.4599024 L93.657183,91.6991227 C93.657183,92.312195 93.4410703,92.5749401 92.8791778,92.5749401 L90.3722728,92.5749401 C89.7671579,92.5749401 89.5510456,92.312195 89.5510456,91.6991227 L89.5510456,71.6866984 C89.5510456,71.1174172 89.7671579,70.8546717 90.3722728,70.8546717 Z M137.499205,76.5036931 L137.499205,81.8461786 C137.499205,82.3716688 137.283092,82.6344139 136.764423,82.6344139 L125.007903,82.6344139 L125.007903,86.6631736 C125.007903,88.4585987 125.872353,89.5971612 129.330152,89.5971612 C132.787953,89.5971612 133.652402,88.4585987 133.652402,86.6631736 L133.652402,86.1814741 C133.652402,85.6121929 133.868515,85.3494474 134.47363,85.3494474 L136.677978,85.3494474 C137.23987,85.3494474 137.499205,85.6121929 137.499205,86.1814741 L137.499205,86.9259187 C137.499205,90.5167696 135.381303,92.9252669 129.243708,92.9252669 C123.106113,92.9252669 120.98821,90.5167696 120.98821,86.9259187 L120.98821,76.5036931 C120.98821,72.9128426 123.192558,70.5043449 129.330152,70.5043449 C135.424525,70.5043449 137.499205,72.9128426 137.499205,76.5036931 Z M125.007903,76.7664385 L125.007903,79.5252626 L133.652402,79.5252626 L133.652402,76.7664385 C133.652402,75.0148038 132.57184,73.8324506 129.330152,73.8324506 C126.045243,73.8324506 125.007903,75.0148038 125.007903,76.7664385 Z" id="Home" fill="#0A0A0A"></path>
        </g>
    </g>
</svg>