<svg xmlns="http://www.w3.org/2000/svg" viewBox="0 0 540.873 279.076"><path fill="#005CB9" d="M412.92 101.64c-.3 0-.6 0-.92-.04-2.32-.25-4.4-1.38-5.87-3.2-1.46-1.8-2.13-4.07-1.9-6.38.5-4.78 4.82-8.26 9.6-7.76 2.3.24 4.4 1.37 5.86 3.18 1.4 1.8 2.1 4.08 1.8 6.4-.5 4.47-4.3 7.8-8.7 7.8zm0-13.13c-2.24 0-4.17 1.7-4.4 4-.13 1.2.2 2.3.96 3.3.74 1 1.8 1.5 2.97 1.6 2.42.3 4.6-1.5 4.85-3.9.12-1.1-.22-2.3-.96-3.2-.74-.9-1.8-1.5-2.97-1.6h-.46z"/><g fill="#005CB9"><path d="M448.78 47.62c-3.86 69.04-39.95 68.23-74.53 56.27 11.77 13.3 22.8 20.6 35.54 21.4-2.3 18.4-25.1 37.5 22.2 101.9-5.8-34.9-19.8-54.6-.3-79.4 7.4 8.7 17.1 16.6 6.2 58.6 41.1-61.6 2.8-74.5.8-88.1 17.5-30.4 17.1-54.8 10-71zm44.28-.05c2.04 0 4.08-.74 5.68-2.23 1.6-1.5 2.6-3.74 2.8-6.18.18-2.53-.58-4.9-2.1-6.52-1.7-1.84-4.23-2.4-7.17-3.06-2.18-.5-4.65-1.04-7.2-2.2-1.6-.74-2.84-.05-3.42.77-2.26 3.12 3.6 14.95 5.3 16.78 1.65 1.75 3.88 2.64 6.1 2.64zm-1.73-13.8c2.24.5 4.17.94 4.98 1.8.7.74 1.1 1.96 1 3.28-.1 1.35-.6 2.6-1.4 3.34-1.6 1.5-4.2 1.4-5.7-.2-1.2-1.4-3.5-6.6-4.4-9.8 2.1.7 4 1.1 5.7 1.5z"/><path d="M540.87 35c-9.12 13.47-14.74 16.98-23.13 19.73 9.53-13.37 10.3-39.06 10.5-54.73-10.7 30.85-20.1 67.18-46.87 52.12-4.6-3.32-7.34 1.65 2.34 15.86-22.4 7.14-41.2 44.74-4.1 87.35-9.4-45.82-5.5-50.5 5.5-48.66 9.1 10.47 1 67.4-2.2 82.93 7.3-11.55 37.7-100.55 24.1-115.07 14.7-4.8 31.9-23.78 34-39.53z"/></g><path fill="#005CB9" d="M9.3 125.14H0v80.8h46.4v-8.6H9.3m50.22-71.1c-3.02 0-6.24 2.5-6.24 6.25 0 3.7 3.23 6.2 6.24 6.2 3 0 6.24-2.5 6.24-6.3s-3.23-6.3-6.24-6.3zm-4.55 25.64h9.1v54.3h-9.1zm56.53 0H93.97v-12.65c0-7.8 1.46-12.65 8.72-12.65 1.6 0 3.5.26 5.5.76l.8.22 1.7-8.43-.9-.17c-2.7-.56-4.7-.8-6.6-.8-12.3 0-18.5 6.78-18.5 20.18v13.55h-14v8.4h14.1v45.9h9.1v-45.9h17.5v-8.5zm26.7-1.34c-15.6 0-27.37 12.25-27.37 28.5s12.06 28.5 28.05 28.5c9.47 0 17.3-3.85 23.27-11.45l.5-.7-7.1-5.9-.5.8c-2.62 4.2-8.24 8.7-16.17 8.7-9.82 0-17.6-7.7-18.5-18.2-.18-2.4-.1-3.4.22-5.9.97-7.8 7.98-16.2 17.6-16.2 9.75 0 15.9 5.8 16.24 15.2l-28.15.1v7.8l37.9-.18v-4.2c0-15.9-10.7-27.07-26.1-27.17zm62.35 24.76l-7.55-1.8c-7.34-1.68-9.7-3.5-9.7-7.5 0-4.86 5.07-7.03 10.08-7.03 4.72 0 8.3 2.23 10.6 6.63l.44.83 8.03-5.3-.33-.68c-3.14-6.4-9.64-9.9-18.3-9.9-10.1 0-20.3 5.15-20.3 16.68 0 5.08 2.46 11.74 14.16 14.65l7.18 1.7c5.94 1.44 9.37 3.16 9.37 7.6 0 5.48-5.8 7.94-11.53 7.94-6.86 0-10.92-4.07-13.12-7.5l-.47-.72-7.8 5.35.5.7c4.7 7.03 11.8 10.6 21 10.6 9.9 0 21.3-4.47 21.3-17.04 0-7.3-5.2-13.3-13.4-15.2zm51.1 21.9c-2.2 1.2-4.9 1.92-7.25 1.92-4.3 0-6.8-1.4-6.8-8.6v-30.2h15.18v-8.43H237.6V137h-9.1v14.85h-11.14v8.42h11.13v32.32c0 13.4 9.7 14.9 13.8 14.9 3.9 0 7.5-.7 10.3-2l.5-.3-.4-8.8-1.2.6zm31.6-3.35l-15.93-41.96h-11.16L278.1 206l-3.7 9.8c-2.45 6.42-5.06 8.9-9.36 8.9-2.1 0-3.8-.36-5.23-1.12l-1.1-.6-1 9.15.7.2c2.4.73 5 .83 7.1.83 10.5 0 14.7-7 17.3-13.82l26.8-67.5h-10.8l-15.5 41.97zm33.8-74.35h9.1v86.7h-9.1zm38.18 62.54l37.95-.14v-4.2c0-15.9-10.7-27.05-26.03-27.16-15.6 0-27.38 12.25-27.38 28.5s12.06 28.5 28.05 28.5c9.47 0 17.3-3.85 23.27-11.45l.5-.7-7.2-5.9-.5.8c-2.6 4.2-8.3 8.7-16.2 8.7-9.8 0-17.6-7.7-18.5-18.2-.2-2.4-.1-3.4.2-5.9.9-7.8 7.9-16.2 17.6-16.2 9.7 0 15.9 5.8 16.2 15.2l-28.2.1v7.8z"/><path fill="#646569" d="M318.4 254.94l-13.1-35h-6.66l16.94 44.6h5.52l17.38-44.6h-6.54m9.9 14.56h5.68v30.04h-5.68zm2.84-13.83c-1.8 0-3.75 1.5-3.75 3.75 0 2.24 1.94 3.75 3.75 3.75 1.8 0 3.75-1.5 3.75-3.75 0-2.24-1.94-3.75-3.75-3.75zm11.7-3.64h5.68v47.5h-5.68zm14.52 0h5.7v47.5h-5.7zm37.5 40.3v-12.67c0-6.62-4.4-10.9-11.2-10.9-5.45 0-9.8 1.5-12.6 4.37l-.54.55 3.48 4.1.65-.6c2.3-2.05 5-3.1 8.1-3.1 4.4 0 6.4 2 6.4 6.5v6.05c0 4.02-2.1 8.3-7.8 8.3-1 0-5.9-.2-5.9-4.36 0-3.2 5.8-4.4 9.3-4.82l.7-.1v-5l-.9.08c-12.6 1.1-15.2 6.25-15.2 10.38 0 6.3 5.4 9.2 10.5 9.2 4.04 0 7.02-1.2 9.4-3.8.03.9.13 1.7.3 2.4l.1.7h5.6l-.15-.9c-.25-1.5-.5-4.1-.5-6.2zm31.62-19.43c-2.68-2.7-6.18-4.14-10.24-4.14-8.7 0-15.27 6.66-15.27 15.5 0 8.57 6.9 15.27 15.7 15.27 3 0 6.9-.73 9.9-3.92v2.9c0 4.7-1.7 10.3-10.2 10.3-4.1 0-7.9-1.8-10.2-4.8l-.6-.8-4.2 4.5.6.6c3.9 4.1 8.4 6 14.3 6 14.5 0 16.1-10.9 16.1-15.6v-29h-5.7v3.4zm.12 11.28c.1 2.73-.8 5.16-2.58 7.02-1.84 1.9-4.5 3-7.3 3-5.35 0-9.7-4.5-9.7-10.06 0-5.55 4.35-10.06 9.7-10.06 5.82 0 9.88 4.14 9.88 10.1zm60.2-2.08l-4.06-.96c-3.77-.86-4.93-1.72-4.93-3.66 0-2.5 2.72-3.4 5.04-3.4s4.2 1.13 5.3 3.37l.4.82 4.9-3.3-.4-.65c-1.8-3.6-5.4-5.56-10.2-5.56-5.7 0-11.4 2.9-11.4 9.4 0 4.05 2.82 7 7.93 8.26l3.9.9c3.5.87 4.76 1.84 4.76 3.73 0 3.07-3.66 3.9-5.8 3.9-3.54 0-5.6-2.1-6.76-3.86l-.45-.8-4.84 3.3.46.7c2.6 3.9 6.5 5.9 11.6 5.9 5.45 0 11.85-2.5 11.85-9.6 0-4.2-2.95-7.6-7.54-8.6zm-33.6-14c-9.1 0-15.92 7.12-15.92 16.57s7 16.58 16.3 16.58c5.52 0 10.07-2.24 13.54-6.66l.4-.6-4.4-3.7-.42.6c-1.47 2.3-4.63 4.9-9.1 4.9-5.54 0-9.93-4.3-10.43-10.2-.1-1.3 0-2 .2-3.4.6-4.4 4.5-9.1 9.9-9.1s8.9 3.2 9.1 8.3l-16.2.43v4.86l22.3-.48v-2.6c0-9.3-6.2-15.8-15.1-15.8zM158.9 122.37L140.2 95.8h-5.5v35.02h5.07V104l18.68 26.82h5.52v-35h-5.08m30.1 29.2v-9.82c0-5.26-3.5-8.66-8.9-8.66-4.3 0-7.7 1.2-9.9 3.46l-.6.54 2.9 3.46.6-.58c1.7-1.57 3.8-2.37 6.1-2.37 3.3 0 4.8 1.5 4.8 4.85v4.7c0 3.93-2.2 6.28-5.86 6.28-.7 0-4.33-.16-4.33-3.2 0-1.6 2.53-2.84 7.1-3.5l.7-.1v-4.27l-.9.1c-9.9 1-11.96 5-11.96 8.2 0 5 4.4 7.3 8.45 7.3 3 0 5.3-.8 7.1-2.7.04.5.1 1 .2 1.5l.1.7h4.7l-.15-1c-.2-1.1-.38-3.1-.38-4.8zm17.3 1.1c-.9.48-1.9.76-2.8.76-1.4 0-2.4-.23-2.4-3.12V111.6h6.3v-4.5H201v-6.2h-4.8v6.2h-4.66v4.5h4.66v13.06c0 4.2 2.4 6.72 6.3 6.72 1.7 0 3.38-.3 4.6-.87l.5-.2-.22-4.8-1.14.7zm4.4-19.02h4.8v23.72h-4.8zm2.4-10.73c-1.5 0-3.1 1.25-3.1 3.1 0 1.86 1.6 3.1 3.1 3.1s3.1-1.24 3.1-3.1c0-1.85-1.6-3.1-3.1-3.1zm19.5 10.17c-7.28 0-12.5 5.23-12.5 12.42 0 7.2 5.23 12.42 12.5 12.42 7.3 0 12.54-5.22 12.54-12.42s-5.3-12.42-12.6-12.42zm0 20.34c-4.4 0-7.48-3.26-7.48-7.92s3.07-7.9 7.45-7.9c4.5 0 7.5 3.17 7.5 7.9 0 4.74-3 7.92-7.5 7.92zm27.92-20.34c-2.46 0-4.95 1.05-6.68 2.7l-.1-1.4-.1-.73H249l.1 1.9c.1 1.4.18 3 .18 3.9V131h4.8v-12.2c0-7.54 5.6-7.63 5.84-7.63 3.74 0 5.13 1.8 5.13 6.74V131h4.8v-15c0-6.1-3.26-9.46-9.14-9.46zm39.83-13h4.8v37.28h-4.8zm-6.36 31.5v-9.84c0-5.26-3.5-8.66-8.9-8.66-4.3 0-7.7 1.2-9.94 3.46l-.5.54 2.93 3.46.6-.58c1.75-1.57 3.8-2.37 6.17-2.37 3.3 0 4.8 1.5 4.8 4.85v4.7c0 3.93-2.2 6.28-5.83 6.28-.7 0-4.3-.16-4.3-3.2 0-1.6 2.5-2.84 7.06-3.5l.7-.1v-4.27l-.9.1c-9.8 1-11.9 5-11.9 8.2 0 5 4.4 7.3 8.46 7.3 3 0 5.3-.8 7.1-2.7.04.5.1 1 .2 1.5l.1.7h4.7l-.17-1c-.2-1.1-.4-3.1-.4-4.8z"/></svg>