<svg version="1.1" id="Layer_1" xmlns="http://www.w3.org/2000/svg" xmlns:xlink="http://www.w3.org/1999/xlink" x="0px" y="0px" viewBox="0 0 155.9 70.9" style="enable-background:new 0 0 155.9 70.9;" xml:space="preserve">
<style type="text/css">
	.logo-precinct-color{fill:#FFFFFF;}
</style>
<g>
	<path class="logo-precinct-color" d="M15,46.8V12.5h5c2,0,3.4,0.4,4.1,1.1c0.7,0.8,1.1,2.1,1.1,4.1v8.4c0,2-0.4,3.3-1.1,4.1
		C23.4,31,22,31.3,20,31.3h-1.9v15.4H15z M18.1,28.7h1.5c1.6,0,2.4-0.7,2.4-2.1v-9.3c0-1.4-0.8-2.1-2.4-2.1h-1.5V28.7z"></path>
	<path class="logo-precinct-color" d="M39.4,46.8V32.4c0-1.4-0.8-2.1-2.5-2.1h-2.1v16.5h-3.1V12.5h5.8c1.7,0,2.9,0.2,3.6,0.7
		c0.9,0.6,1.3,1.7,1.3,3.3v8.7c0,1.3-0.3,2.2-0.8,2.8c-0.5,0.6-1.4,0.9-2.6,0.9v0.1c2.4,0.2,3.6,1.2,3.6,3.2v14.7H39.4z M34.8,27.6
		h2.1c1.6,0,2.3-0.8,2.3-2.5v-7.7c0-1.6-0.9-2.3-2.7-2.3h-1.8V27.6z"></path>
	<path class="logo-precinct-color" d="M50.9,46.8V12.5h8.3v2.7H54v12.5h4.9v2.7H54v13.8h5.2v2.7H50.9z"></path>
	<path class="logo-precinct-color" d="M73.2,21.5v-4.4c0-1.5-0.6-2.2-1.8-2.2c-1.2,0-1.8,0.7-1.8,2.2v25.2c0,1.5,0.6,2.2,1.8,2.2
		c1.2,0,1.8-0.7,1.8-2.2v-4.8h3.1v4.9c0,3.2-1.6,4.7-4.9,4.7c-3.3,0-4.9-1.6-4.9-4.7V17c0-3.2,1.6-4.7,4.9-4.7
		c3.3,0,4.9,1.6,4.9,4.7v4.5H73.2z"></path>
	<path class="logo-precinct-color" d="M83.2,46.8V12.5h3.1v34.3H83.2z"></path>
	<path class="logo-precinct-color" d="M102.9,12.5h2.8v34.3h-4.5l-4-30.5v30.5h-2.8V12.5H99l3.9,29.3V12.5z"></path>
	<path class="logo-precinct-color" d="M120.4,21.5v-4.4c0-1.5-0.6-2.2-1.8-2.2c-1.2,0-1.8,0.7-1.8,2.2v25.2c0,1.5,0.6,2.2,1.8,2.2
		c1.2,0,1.8-0.7,1.8-2.2v-4.8h3.1v4.9c0,3.2-1.6,4.7-4.9,4.7c-3.3,0-4.9-1.6-4.9-4.7V17c0-3.2,1.6-4.7,4.9-4.7
		c3.3,0,4.9,1.6,4.9,4.7v4.5H120.4z"></path>
	<path class="logo-precinct-color" d="M132.6,46.8V15.2h-3.5v-2.7h10.2v2.7h-3.5v31.6H132.6z"></path>
</g>
<g>
	<g>
		<path class="logo-precinct-color" d="M139.3,57.9c0.1-0.2,0.2-0.5,0.2-0.9c0-0.4-0.1-0.7-0.2-0.9c-0.1-0.2-0.3-0.4-0.5-0.5
			c-0.2-0.1-0.5-0.2-0.7-0.3c-0.3-0.1-0.5-0.2-0.7-0.2c-0.2-0.1-0.4-0.2-0.5-0.3c-0.1-0.1-0.2-0.3-0.2-0.5c0-0.2,0.1-0.4,0.2-0.5
			c0.2-0.1,0.4-0.2,0.6-0.2c0.2,0,0.4,0,0.6,0.1c0.2,0.1,0.4,0.2,0.7,0.4l0.5-1c-0.6-0.4-1.2-0.6-1.8-0.6c-0.3,0-0.5,0-0.8,0.1
			c-0.3,0.1-0.5,0.2-0.7,0.4c-0.2,0.2-0.3,0.4-0.4,0.6c-0.1,0.2-0.2,0.5-0.2,0.7c0,0.4,0.1,0.7,0.2,0.9c0.1,0.2,0.3,0.4,0.5,0.5
			c0.2,0.1,0.5,0.2,0.7,0.3c0.3,0.1,0.5,0.2,0.7,0.2c0.2,0.1,0.4,0.2,0.5,0.3c0.1,0.1,0.2,0.3,0.2,0.6c0,0.1,0,0.2-0.1,0.3
			c0,0.1-0.1,0.2-0.2,0.3c-0.1,0.1-0.2,0.1-0.3,0.2c-0.1,0-0.3,0.1-0.5,0.1c-0.1,0-0.2,0-0.4-0.1c-0.1,0-0.2-0.1-0.4-0.2
			c-0.1-0.1-0.2-0.1-0.4-0.2c-0.1-0.1-0.2-0.2-0.4-0.2l-0.5,1.1c0.4,0.2,0.7,0.4,1.1,0.5c0.3,0.1,0.7,0.2,1,0.2c0.3,0,0.6,0,0.8-0.1
			c0.3-0.1,0.5-0.2,0.7-0.4C139,58.3,139.2,58.1,139.3,57.9"></path>
		<polygon class="logo-precinct-color" points="110.5,52.7 108.3,55.6 106.2,52.7 105.3,52.7 105.3,58.9 106.5,58.9 106.5,55 106.5,55 108.3,57.5
			110.1,55 110.1,55 110.1,58.9 111.4,58.9 111.4,52.7 		"></polygon>
		<rect x="102.6" y="52.7" class="logo-precinct-color" width="1.2" height="6.2"></rect>
		<path class="logo-precinct-color" d="M119.2,57.1c0.2-0.4,0.3-0.8,0.3-1.3c0-0.5-0.1-0.9-0.3-1.3c-0.2-0.4-0.4-0.7-0.7-1c-0.3-0.3-0.7-0.5-1.1-0.7
			c-0.4-0.2-0.9-0.3-1.4-0.3c-0.5,0-0.9,0.1-1.3,0.3c-0.4,0.2-0.8,0.4-1.1,0.7c-0.3,0.3-0.5,0.6-0.7,1c-0.2,0.4-0.3,0.8-0.3,1.3
			c0,0.5,0.1,0.9,0.3,1.3c0.2,0.4,0.4,0.7,0.7,1c0.3,0.3,0.7,0.5,1.1,0.7c0.4,0.2,0.9,0.3,1.3,0.3c0.5,0,0.9-0.1,1.4-0.3
			c0.4-0.2,0.8-0.4,1.1-0.7C118.8,57.8,119.1,57.4,119.2,57.1 M118.1,56.6c-0.1,0.3-0.3,0.5-0.5,0.7c-0.2,0.2-0.4,0.4-0.7,0.5
			c-0.3,0.1-0.6,0.2-0.9,0.2c-0.3,0-0.6-0.1-0.9-0.2c-0.3-0.1-0.5-0.3-0.7-0.5c-0.2-0.2-0.4-0.4-0.5-0.7c-0.1-0.3-0.2-0.6-0.2-0.9
			c0-0.3,0.1-0.6,0.2-0.9c0.1-0.3,0.3-0.5,0.5-0.7c0.2-0.2,0.4-0.4,0.7-0.5c0.3-0.1,0.6-0.2,0.9-0.2c0.3,0,0.6,0.1,0.9,0.2
			c0.3,0.1,0.5,0.3,0.7,0.5c0.2,0.2,0.4,0.4,0.5,0.7c0.1,0.3,0.2,0.6,0.2,0.9C118.2,56.1,118.2,56.4,118.1,56.6"></path>
		<path class="logo-precinct-color" d="M133.4,57.9c0.3-0.3,0.5-0.6,0.6-1c0.1-0.4,0.2-0.7,0.2-1.1c0-0.3-0.1-0.7-0.2-1.1c-0.1-0.4-0.3-0.7-0.6-1
			c-0.3-0.3-0.6-0.5-1.1-0.7c-0.5-0.2-1-0.3-1.7-0.3h-2.4v6.3h2.5c0.6,0,1.2-0.1,1.6-0.3C132.8,58.5,133.2,58.2,133.4,57.9
			 M132.7,56.7c-0.1,0.3-0.3,0.5-0.5,0.7c-0.2,0.2-0.4,0.3-0.7,0.4c-0.3,0.1-0.5,0.1-0.8,0.1h-1.3v-4.2h1.2c0.3,0,0.6,0.1,0.9,0.2
			c0.3,0.1,0.5,0.2,0.7,0.4c0.2,0.2,0.4,0.4,0.5,0.6c0.1,0.3,0.2,0.5,0.2,0.8C132.9,56.1,132.9,56.4,132.7,56.7"></path>
		<polygon class="logo-precinct-color" points="125.5,52.7 125.5,56.8 121.8,52.7 120.7,52.7 120.7,58.9 122,58.9 122,54.6 125.8,58.9 126.7,58.9
			126.7,52.7 		"></polygon>
		<path class="logo-precinct-color" d="M101.2,57.7c0.3-1,0-1.7-0.1-1.8c-0.1-0.1-0.4-0.8-1.7-1.1c-1.3-0.4-1.6-0.7-1.7-0.8
			c-0.1-0.1-0.3-0.7,0.1-1.2c0.2-0.3,0.6-0.4,0.9-0.4c0.2,0,0.5,0.1,0.6,0.1c0.4,0.2,0.9,0.4,0.9,0.4l0.5-1.1
			c-0.9-0.5-1.5-0.6-2.1-0.6c0,0,0,0,0,0c-0.4,0-1,0.1-1.5,0.5c-0.7,0.6-0.8,1.3-0.8,1.4c0,0.5,0,1,0.4,1.5c0.4,0.4,0.9,0.6,1.9,0.9
			c0.8,0.2,1.1,0.6,1.1,0.6c0.5,0.6,0.2,1.3,0.2,1.3c-0.2,0.4-0.7,0.6-1.2,0.6c-0.2,0-0.5,0-0.7-0.1c-0.3-0.1-1-0.6-1.1-0.7
			c0,0.1-0.5,1.1-0.5,1.1s0.3,0.2,0.8,0.4c0.6,0.3,1.1,0.4,1.6,0.4c0.1,0,0.3,0,0.4,0C99.9,59.2,100.9,58.7,101.2,57.7"></path>
	</g>
	<g>
		<g>
			<path class="logo-precinct-color" d="M66.6,52.1H68c0.7,0,1.3,0.2,1.7,0.5c0.4,0.3,0.6,0.7,0.6,1.3c0,0.7-0.3,1.2-1,1.5c1,0.2,1.6,0.8,1.6,1.7
				c0,0.5-0.2,1-0.6,1.3c-0.4,0.3-1,0.5-1.7,0.5h-2V52.1z M67.1,52.5v2.7h0.7c1.2,0,1.8-0.4,1.8-1.3c0-0.9-0.6-1.3-1.9-1.3H67.1z
				 M67.1,55.7v2.7h1.4c0.6,0,1-0.1,1.3-0.4c0.3-0.2,0.4-0.6,0.4-1c0-0.9-0.7-1.4-2-1.4H67.1z"></path>
			<path class="logo-precinct-color" d="M74.9,58.9v-0.7h0c-0.2,0.3-0.4,0.5-0.6,0.6c-0.2,0.1-0.5,0.2-0.8,0.2c-0.5,0-0.9-0.2-1.2-0.5
				c-0.3-0.3-0.5-0.7-0.5-1.3v-2.8h0.5v2.7c0,0.4,0.1,0.7,0.3,1s0.5,0.4,0.9,0.4c0.3,0,0.6-0.1,0.8-0.2c0.2-0.1,0.4-0.4,0.7-0.7
				v-3.1h0.5v4.4H74.9z"></path>
			<path class="logo-precinct-color" d="M77,52.1v0.8h-0.5v-0.8H77z M77,54.4v4.4h-0.5v-4.4H77z"></path>
			<path class="logo-precinct-color" d="M78.7,52.1v6.7h-0.5v-6.7H78.7z"></path>
			<path class="logo-precinct-color" d="M80.9,52.9v1.5h1.2v0.4h-1.2v2.6c0,0.4,0,0.7,0.1,0.8c0.1,0.1,0.3,0.2,0.6,0.2c0.2,0,0.5-0.1,0.8-0.2v0.5
				c-0.3,0.2-0.6,0.2-0.9,0.2c-0.3,0-0.5-0.1-0.7-0.3c-0.2-0.2-0.3-0.4-0.3-0.7v-3.2h-1.2v-0.4h1.2v-1.1l0.3-0.4H80.9z"></path>
			<path class="logo-precinct-color" d="M85.6,58.6v-6.5H86V55c0.5-0.5,1-0.7,1.6-0.7c0.6,0,1.1,0.2,1.4,0.6s0.6,0.9,0.6,1.6c0,0.7-0.2,1.3-0.7,1.8
				c-0.5,0.4-1.1,0.7-1.8,0.7C86.7,58.9,86.1,58.8,85.6,58.6z M86,55.6v2.7c0.4,0.1,0.7,0.2,1.1,0.2c0.6,0,1-0.2,1.4-0.6
				s0.6-0.8,0.6-1.4c0-0.5-0.1-1-0.4-1.3c-0.3-0.3-0.7-0.5-1.1-0.5C87.1,54.7,86.6,55,86,55.6z"></path>
			<path class="logo-precinct-color" d="M93.9,54.4l-3.3,6.7h-0.5l1.6-3.1l-1.9-3.6h0.5l1.6,3.1l1.5-3.1H93.9z"></path>
		</g>
	</g>
</g>
</svg>