<svg width="270" height="50" version="1.1" id="LogoSVG" xmlns="http://www.w3.org/2000/svg" xmlns:xlink="http://www.w3.org/1999/xlink" x="0px" y="0px" viewBox="0 0 950 187" style="enable-background:new 0 0 950 187;" xml:space="preserve">
  <style type="text/css">
  	.st3{fill:#FFFFFF;}
  </style>
    <path class="st3" d="M911.9,173"></path>
    <g>
  	<path class="st3" d="M658,68.9c2.3-2.3,5.8-4.6,10.3-6.9c4.5-2.3,10.4-3.4,17.6-3.4c6.1,0,11.9,0.9,17.5,2.7
  		c5.5,1.8,10.5,4.9,14.8,9.3c4.3,4.4,7.7,10.1,10.3,17.2c2.6,7.1,3.9,16,3.9,26.6c0,12.2-1.4,22.3-4.2,30.2
  		c-2.8,8-6.4,14.3-10.9,18.9c-4.5,4.6-9.5,7.9-15,9.7c-5.6,1.9-11.1,2.8-16.8,2.8c-5,0-9.3-0.6-13-1.8c-3.7-1.2-6.7-2.5-9.1-3.9
  		c-2.4-1.4-4.3-2.7-5.7-4c-1.3-1.2-2-2.1-2.3-2.6c0,2.3-0.6,4.4-1.9,6.2c-1.3,1.8-3.4,2.7-6.6,2.7h-20.6V7.5
  		c0.3-0.2,1.6-0.4,3.8-0.6c2.2-0.2,4.5-0.4,7-0.4c2.5,0,5,0.2,7.6,0.7c2.6,0.5,4.8,1.4,6.8,2.8c2,1.4,3.6,3.3,4.8,5.7
  		c1.2,2.4,1.9,5.6,1.9,9.5V68.9z M699.1,114.9c0-4.8-0.4-9.3-1.2-13.5c-0.8-4.1-2.1-7.7-3.9-10.7c-1.8-3-4.2-5.3-7.3-7
  		c-3-1.7-6.8-2.6-11.1-2.6c-6.6,0-11.1,1.3-13.7,3.8c-2.6,2.5-3.9,5.3-3.9,8.4v50.9c1.2,1.3,3.5,2.8,6.7,4.6
  		c3.2,1.8,7.2,2.7,12.1,2.7c8,0,13.7-3.2,17.1-9.5C697.3,135.6,699.1,126.6,699.1,114.9z"></path>
        <path class="st3" d="M809.3,152.9c3.9,0,7.3-0.4,10.3-1.3c3-0.9,5.6-1.9,8-3.2c2.3-1.2,4.4-2.6,6.1-4.1c1.7-1.5,3.3-2.8,4.7-4.1
  		c1.9,2.3,3.8,5.4,5.9,9c2,3.7,3,6.7,3,9c0,3.4-2,6.6-5.9,9.4c-3.3,2.5-7.9,4.6-13.9,6.4c-6,1.8-13.1,2.7-21.2,2.7
  		c-7.3,0-14.6-0.9-21.7-2.8c-7.1-1.9-13.4-5.2-19-9.8c-5.6-4.7-10-11-13.5-18.9c-3.4-7.9-5.2-17.9-5.2-29.9c0-9.8,1.5-18.3,4.6-25.4
  		c3.1-7.1,7.1-13,12.2-17.7c5.1-4.7,10.8-8.1,17.2-10.3c6.4-2.2,13-3.3,19.7-3.3c8.8,0,16.2,1.4,22.3,4.1c6.1,2.7,11.1,6.4,14.9,11
  		c3.8,4.6,6.6,9.9,8.3,15.8c1.7,5.9,2.6,12.2,2.6,18.8c0,0.9,0,2,0,3.3c0,1.3,0,2.6-0.1,4c-0.1,1.4-0.2,2.8-0.2,4.1
  		c-0.1,1.3-0.2,2.4-0.4,3.2H779c0.6,8.6,3.3,15.7,8,21.5C791.7,150,799.1,152.9,809.3,152.9z M819.8,105.3c0-7.5-1.4-13.6-4.3-18.3
  		c-2.9-4.7-8.1-7-15.6-7c-6.6,0-11.7,2.2-15.5,6.7c-3.8,4.5-5.6,10.7-5.6,18.6H819.8z"></path>
        <path class="st3" d="M869.7,155.9c-1.1-3.1-1.8-6.4-2.1-9.8c-0.3-3.4-0.5-6.9-0.5-10.3V27l3.5-0.5c1.1-0.2,2.3-0.3,3.5-0.4
  		c1.2-0.1,2.5-0.1,3.8-0.1c2.5,0,5,0.2,7.5,0.7c2.5,0.5,4.8,1.4,6.8,2.8s3.7,3.3,4.9,5.7c1.2,2.4,1.9,5.6,1.9,9.5v16.4h32.8v23.9
  		H899v50.2c0,10.9,4.5,16.4,13.4,16.4c2.2,0,4.3-0.4,6.2-1.1c2-0.7,3.8-1.5,5.4-2.3c1.6-0.9,3-1.8,4.1-2.7s1.9-1.6,2.3-2.1
  		c2.3,3.4,4.1,6.4,5.4,8.9c1.3,2.5,1.9,4.8,1.9,7c0,2-0.8,4-2.5,6c-1.6,2-4,3.8-6.9,5.4c-3,1.6-6.6,3-10.8,4
  		c-4.2,1-8.8,1.5-13.8,1.5c-9.8,0-17.4-1.9-22.7-5.6C875.7,166.9,871.9,162,869.7,155.9z"></path>
  </g>
    <path class="st3" d="M90.4,74.7c0,2.3-0.7,5.1-2.2,8.3c-1.5,3.2-3.1,6.2-4.8,9c-1.4-1.1-3.3-2.3-5.6-3.7c-2.3-1.4-4.9-2.7-7.7-3.9
  	c-2.8-1.2-5.8-2.1-8.9-2.9c-3.1-0.8-6.2-1.2-9.1-1.2c-1.7,0-3.5,0.1-5.4,0.4c-1.9,0.2-3.6,0.7-5,1.4c-1.5,0.7-2.7,1.7-3.8,3
  	c-1,1.3-1.5,3.1-1.5,5.3c0,5.3,5.7,9.2,17.1,11.7c4.7,0.9,9.3,2.2,13.9,3.6c4.6,1.5,8.8,3.6,12.4,6.2c3.7,2.7,6.6,6,8.9,10.1
  	c2.3,4.1,3.4,9.1,3.4,15.2c0,6.3-1.2,11.8-3.6,16.6c-2.4,4.8-5.7,8.9-10,12.2c-4.2,3.3-9.2,5.8-14.9,7.5s-11.9,2.6-18.6,2.6
  	c-7,0-12.9-0.5-17.6-1.5c-4.7-1-8.6-2.2-11.7-3.6c-2.2-0.9-4.6-2.3-7.1-4.1c-2.6-1.8-3.9-4.3-3.9-7.4c0-2.7,0.8-5.4,2.3-8.3
  	c1.6-2.9,3.4-5.9,5.4-9c1.4,1.3,3.2,2.5,5.3,3.9c2.1,1.3,4.5,2.6,7.3,3.8c2.7,1.2,5.7,2.1,8.8,2.9c3.1,0.8,6.3,1.2,9.6,1.2
  	c2,0,4.1-0.2,6.3-0.5c2.2-0.3,4.1-0.9,5.7-1.9c1.6-0.9,3-2.2,4.1-3.7c1.1-1.6,1.6-3.6,1.6-6.1c0-4.5-1.8-7.8-5.3-9.7
  	c-3.5-2-8.8-3.6-15.8-5c-4.5-0.9-8.9-2.2-13.1-3.8c-4.2-1.6-8-3.6-11.3-6.2c-3.3-2.6-5.9-5.8-7.9-9.7c-2-3.9-2.9-8.7-2.9-14.3
  	c0-5.6,1.2-10.6,3.7-14.8c2.5-4.2,5.8-7.8,10-10.8c4.1-3,8.9-5.2,14.4-6.7c5.5-1.5,11.2-2.2,17.1-2.2c6.2,0,11.8,0.5,16.8,1.4
  	c4.9,0.9,9.2,2.2,12.8,3.7C86.5,66.4,90.1,70.1,90.4,74.7z"></path>
    <path class="st3" d="M146.2,174.3h-32.1V63.4l2.8-0.5c0.9-0.2,2-0.3,3.3-0.4c1.2-0.1,2.7-0.1,4.5-0.1c5,0,9.3,0.9,13,2.7
  	c3.7,1.8,6,5,6.9,9.5c2.7-3.6,6.7-6.9,12.2-10c5.5-3.1,12.9-4.6,22.3-4.6c8.8,0,15.3,1.6,19.6,4.7c4.3,3.1,7.5,6.8,9.5,11
  	c3.3-4.1,7.8-7.7,13.6-10.9c5.8-3.2,13.1-4.8,22-4.8c11.1,0,19.3,2.3,24.5,7c5.2,4.7,8.3,10.3,9.3,16.9c0.6,3.6,1.1,7.5,1.3,11.7
  	c0.2,4.2,0.4,8.4,0.4,12.4v66.1h-31.9v-64.7c0-3.4-0.1-6.6-0.2-9.4c-0.2-2.8-0.7-5.2-1.8-7.3c-1-2-2.6-3.6-4.7-4.7
  	c-2.1-1.1-5-1.6-8.8-1.6c-4.1,0-7.9,0.9-11.6,2.8c-3.7,1.9-6.2,3.9-7.6,6.1c0.5,4.5,0.7,9.1,0.7,13.8v64.9h-31.9v-64.7
  	c0-3.4-0.1-6.6-0.2-9.6c-0.2-3-0.8-5.5-1.9-7.6c-1.1-2.1-2.7-3.8-4.9-4.9c-2.2-1.2-5.3-1.8-9.4-1.8c-5.5,0-10,1.2-13.5,3.6
  	c-3.5,2.4-5.3,5.4-5.3,9V174.3z"></path>
    <path class="st3" d="M473.7,74.4c0.9-1.4,2.2-3,3.9-4.7c1.6-1.7,3.6-3.3,5.7-4.7c2.2-1.4,4.6-2.6,7.4-3.5c2.7-0.9,5.7-1.4,8.8-1.4
  	c1.9,0,3.9,0.2,6,0.5c2.1,0.3,4.1,0.9,5.9,1.8c1.8,0.9,3.2,2,4.3,3.5c1.1,1.5,1.6,3.3,1.6,5.5c0,3.3-0.9,7.2-2.6,11.7
  	c-1.7,4.5-3.4,8.4-5.2,11.5c-2.7-2.2-5.3-3.9-8-5c-2.7-1.2-5.8-1.8-9.4-1.8c-4.8,0-8.9,1.4-12.2,4.2c-3.3,2.8-4.9,6.2-4.9,10.1v72.2
  	h-31.9V63.4l2.8-0.5c0.9-0.2,2-0.3,3.3-0.4c1.2-0.1,2.7-0.1,4.5-0.1c5,0,9.3,1,13,2.9C470.5,67.4,472.8,70.4,473.7,74.4z"></path>
    <path class="st3" d="M535.6,155.9c-1.1-3.1-1.8-6.4-2.1-9.8c-0.3-3.4-0.5-6.9-0.5-10.3V27l3.5-0.5c1.1-0.2,2.3-0.3,3.5-0.4
  	c1.2-0.1,2.5-0.1,3.8-0.1c2.5,0,5,0.2,7.5,0.7c2.5,0.5,4.8,1.4,6.8,2.8c2,1.4,3.7,3.3,4.9,5.7c1.2,2.4,1.9,5.6,1.9,9.5v16.4h32.8
  	v23.9h-32.8v50.2c0,10.9,4.5,16.4,13.4,16.4c2.2,0,4.3-0.4,6.2-1.1c2-0.7,3.8-1.5,5.4-2.3c1.6-0.9,3-1.8,4.1-2.7
  	c1.1-0.9,1.9-1.6,2.3-2.1c2.3,3.4,4.1,6.4,5.4,8.9s1.9,4.8,1.9,7c0,2-0.8,4-2.5,6c-1.6,2-4,3.8-6.9,5.4c-3,1.6-6.6,3-10.8,4
  	c-4.2,1-8.8,1.5-13.8,1.5c-9.8,0-17.4-1.9-22.7-5.6C541.6,166.9,537.8,162,535.6,155.9z"></path>
    <g>
  	<path class="st3" d="M388,125.5c6.3,9.5,8.4,18.5,8.9,21.4c2.2,12.1-0.7,23.4-2,27.4h6.8c7.1-22.4-2.9-39-13.2-49.2
  		C388.2,124.8,387.8,125.2,388,125.5z"></path>
        <path class="st3" d="M424.1,140.6l-21.8-37.8L380.5,65c-8.6-15-30.3-15-38.9,0l-21.8,37.8l-21.8,37.8c-6.7,11.5-1.8,25.2,8.7,31
  		c3.6-3,6.6-5,6.6-5s8.9-7.1,33.9-8.1c6.9-0.3,12-10.1,11.3-17.4c11.1-7.5,8.6-18.4,8.6-18.4c-0.9,8.7-8.5,13.2-10.1,13.9
  		c-0.7,0.3-1.4,0.4-1.6,0.5l-6.6,1.5c-1.2,0.3-3.3,0.6-4.5,0.6c-1.4,0-2.9,0.4-4.2,0.9c-2.2,0.8-4,2.4-5.2,4.4l-1.3,2.1
  		c-0.5,0.8-1.4,1.1-2.2,0.7l-8-3.4c-0.7-0.3-1.1-1-1.1-1.7l0.3-4.9c0.6-2.7,2.8-4.4,2.8-4.4l8.8-9.3c0.6-0.6,1.2-1.1,1.8-1.7
  		c2.6-2.3,3.4-7.5,3.4-7.5c0.1-0.6,0.6-1.3,1-1.9c1-1.2,2.2-2.2,3.6-2.9l11.9-5.9l4.9-9c0.1-0.3,0.4-0.3,0.5-0.1l4.7,9.5
  		c4,1.8,51.3,28.4,38.8,70.2C422,174.2,432.8,155.6,424.1,140.6z"></path>
  </g>
</svg>