<svg version="1.1" id="Layer_1" xmlns="http://www.w3.org/2000/svg" xmlns:xlink="http://www.w3.org/1999/xlink" x="0px" y="0px" viewBox="0 0 662.7 382.1" style="enable-background:new 0 0 662.7 382.1;" xml:space="preserve">
<style type="text/css">
	.st0{fill-rule:evenodd;clip-rule:evenodd;fill:url(#SVGID_1_);}
	.st1{fill-rule:evenodd;clip-rule:evenodd;fill:url(#SVGID_2_);}
	.st2{fill-rule:evenodd;clip-rule:evenodd;fill:url(#SVGID_3_);}
	.st3{fill-rule:evenodd;clip-rule:evenodd;fill:url(#SVGID_4_);}
	.st4{fill-rule:evenodd;clip-rule:evenodd;fill:url(#SVGID_5_);}
	.st5{fill-rule:evenodd;clip-rule:evenodd;fill:url(#SVGID_6_);}
	.st6{fill-rule:evenodd;clip-rule:evenodd;fill:url(#SVGID_7_);}
	.st7{fill-rule:evenodd;clip-rule:evenodd;fill:url(#SVGID_8_);}
	.st8{fill-rule:evenodd;clip-rule:evenodd;fill:url(#SVGID_9_);}
	.st9{fill-rule:evenodd;clip-rule:evenodd;fill:url(#SVGID_10_);}
	.st10{fill-rule:evenodd;clip-rule:evenodd;fill:url(#SVGID_11_);}
</style>
    <radialGradient id="SVGID_1_" cx="325.2289" cy="229.2754" r="267.9644" gradientTransform="matrix(1 0 0 -1 0 412.12)" gradientUnits="userSpaceOnUse">
	<stop offset="0.1612" style="stop-color:#8C2881"></stop>
        <stop offset="1" style="stop-color:#332375"></stop>
</radialGradient>
    <path class="st0" d="M56.3,159.8c-5.1,0-10.1-0.6-15-1.9c-4.9-1.2-9.3-2.8-13.3-4.6c-4-1.8-7.5-3.6-10.4-5.4c-2.9-1.8-5-3.3-6.1-4.4
	L0,165.8c7.8,5.5,16.5,9.8,26.3,12.8c9.8,3,19.6,4.5,29.7,4.5c6.5,0,12.8-0.7,18.8-2.2c6-1.4,11.3-3.7,15.8-6.9
	c4.5-3.1,8.1-7.2,10.8-12.3c2.7-5.1,4-11.2,4-18.3c0-6.1-1-11.3-3-15.5c-2-4.2-4.9-7.8-8.5-10.8c-3.7-3-8.2-5.5-13.5-7.5
	c-5.3-2-11.2-3.9-17.7-5.6c-5-1.2-9.4-2.4-13.2-3.6c-3.8-1.1-7-2.4-9.5-3.8c-2.5-1.4-4.4-3-5.7-4.8c-1.3-1.8-2-4.1-2-6.9
	c0-4.8,1.8-8.4,5.2-11.1s8.8-3.9,16-3.9c4,0,7.9,0.5,11.8,1.5c3.9,1,7.5,2.2,10.8,3.7s6.1,2.9,8.4,4.4c2.3,1.5,3.9,2.7,4.8,3.6
	l11.4-21c-5.9-4-12.8-7.5-20.6-10.4c-7.9-2.9-16.5-4.4-25.9-4.4c-6.8,0-13.1,0.9-18.9,2.7c-5.9,1.8-11.1,4.5-15.5,8
	s-7.9,7.9-10.4,13.1c-2.5,5.2-3.8,11.3-3.8,18c0,5.1,0.8,9.6,2.3,13.3c1.6,3.8,3.9,7,7,9.8c3.1,2.8,7,5.2,11.7,7.2
	c4.7,2.1,10.2,4,16.6,5.7c5.3,1.4,10,2.7,14.3,3.9s7.9,2.6,10.9,4.1s5.3,3.3,6.9,5.3c1.6,2,2.4,4.5,2.4,7.5
	C77.7,155.2,70.6,159.8,56.3,159.8z"></path>
    <radialGradient id="SVGID_2_" cx="325.2289" cy="229.2754" r="267.9644" gradientTransform="matrix(1 0 0 -1 0 412.12)" gradientUnits="userSpaceOnUse">
	<stop offset="0.1612" style="stop-color:#8C2881"></stop>
        <stop offset="1" style="stop-color:#332375"></stop>
</radialGradient>
    <polygon class="st1" points="165.1,182.8 191,182.8 191,72.2 228.4,72.2 228.4,48.3 123.7,48.3 123.7,72.2 165.1,72.2 "></polygon>
    <radialGradient id="SVGID_3_" cx="325.2289" cy="229.2754" r="267.9644" gradientTransform="matrix(1 0 0 -1 0 412.12)" gradientUnits="userSpaceOnUse">
	<stop offset="0.1612" style="stop-color:#8C2881"></stop>
        <stop offset="1" style="stop-color:#332375"></stop>
</radialGradient>
    <path class="st2" d="M513.7,131.4c7.4-3.1,13.2-8.2,17.5-15.3c4.3-7.1,6.5-14.9,6.5-23.6c0-5.4-1.1-10.7-3.2-16.1
	s-5.1-10.1-8.8-14.3c-3.8-4.2-8.2-7.6-13.4-10.1s-10.9-3.9-17-3.9h-58.9v134.5h25.9v-45.9h25.5l28,45.9H545L513.7,131.4z M510.3,101
	c-0.9,2.6-2.1,4.9-3.6,6.9c-1.5,1.9-3.3,3.5-5.3,4.6c-2.1,1.1-4.3,1.7-6.7,1.7h-32.5V72.2h31.3c2.2,0,5.3,0.2,6.5,0.6
	c2.3,0.8,4.2,2.3,5.9,4.3s3,4.2,4,6.9c1,2.6,1.5,5.5,1.5,8.6C511.6,95.6,511.2,98.4,510.3,101z"></path>
    <radialGradient id="SVGID_4_" cx="325.2289" cy="229.2754" r="267.9644" gradientTransform="matrix(1 0 0 -1 0 412.12)" gradientUnits="userSpaceOnUse">
	<stop offset="0.1612" style="stop-color:#8C2881"></stop>
        <stop offset="1" style="stop-color:#332375"></stop>
</radialGradient>
    <polygon class="st3" points="551.8,48.3 551.8,72.2 594.4,72.2 594.4,182.8 620.3,182.8 620.3,72.2 662.7,72.2 662.7,48.3 "></polygon>
    <radialGradient id="SVGID_5_" cx="325.2289" cy="229.2754" r="267.9644" gradientTransform="matrix(1 0 0 -1 0 412.12)" gradientUnits="userSpaceOnUse">
	<stop offset="0.1612" style="stop-color:#8C2881"></stop>
        <stop offset="1" style="stop-color:#332375"></stop>
</radialGradient>
    <path class="st4" d="M254.8,271.2c-3.1-8.1-7.4-15.4-13-21.8c-5.6-6.4-12.4-11.5-20.2-15.5c-7.9-3.9-16.6-5.9-26.2-5.9
	c-9.3,0-17.9,1.9-25.8,5.5c-7.9,3.7-14.7,8.7-20.5,14.9c-5.8,6.3-10.3,13.5-13.6,21.6c-3.2,8.1-4.9,16.6-4.9,25.5
	c0,8.5,1.5,16.8,4.6,25c3.1,8.1,7.4,15.4,13.1,21.7c5.7,6.3,12.5,11.4,20.3,15.2c7.9,3.8,16.6,5.7,26.2,5.7c9.3,0,17.9-1.8,25.8-5.5
	c7.9-3.7,14.7-8.6,20.4-14.8c5.7-6.2,10.2-13.3,13.5-21.4c3.2-8.1,4.9-16.5,4.9-25.4C259.3,287.6,257.8,279.4,254.8,271.2z
	 M230.3,311.9c-1.7,5.3-4.1,10.1-7.3,14.4c-3.2,4.2-7.1,7.7-11.8,10.2c-4.6,2.6-10,3.9-16.1,3.9c-6,0-11.3-1.2-16-3.8
	c-4.7-2.5-8.7-5.8-11.9-10s-5.7-8.9-7.5-14.3s-2.6-11-2.6-16.7c0-5.5,0.8-10.9,2.5-16.2c1.7-5.3,4.1-10.1,7.4-14.3
	c3.2-4.2,7.2-7.6,11.8-10.1s10-3.9,16.1-3.9c5.9,0,11.1,1.2,15.8,3.7c4.6,2.4,8.6,5.7,11.8,9.9c3.2,4.1,5.8,8.9,7.5,14.3
	c1.8,5.4,2.7,11,2.7,16.7C232.8,301.1,232,306.6,230.3,311.9z"></path>
    <radialGradient id="SVGID_6_" cx="325.2289" cy="229.2754" r="267.9644" gradientTransform="matrix(1 0 0 -1 0 412.12)" gradientUnits="userSpaceOnUse">
	<stop offset="0.1612" style="stop-color:#8C2881"></stop>
        <stop offset="1" style="stop-color:#332375"></stop>
</radialGradient>
    <polygon class="st5" points="502.6,316.5 427.7,229 407.6,229 407.6,363.2 433.5,363.2 433.5,276.9 507.5,363.2 528.5,363.2
	528.5,229.2 502.6,229.2 "></polygon>
    <radialGradient id="SVGID_7_" cx="325.2289" cy="229.2754" r="267.9644" gradientTransform="matrix(1 0 0 -1 0 412.12)" gradientUnits="userSpaceOnUse">
	<stop offset="0.1612" style="stop-color:#8C2881"></stop>
        <stop offset="1" style="stop-color:#332375"></stop>
</radialGradient>
    <polygon class="st6" points="551.8,253 594.4,253 594.4,363.2 620.3,363.2 620.3,253 662.7,253 662.7,229.2 551.8,229.2 "></polygon>
    <g>

		<radialGradient id="SVGID_8_" cx="325.2289" cy="229.2754" r="267.9644" gradientTransform="matrix(1 0 0 -1 0 412.12)" gradientUnits="userSpaceOnUse">
		<stop offset="0.1612" style="stop-color:#8C2881"></stop>
            <stop offset="1" style="stop-color:#332375"></stop>
	</radialGradient>
        <path class="st7" d="M315.1,147.4c4.2-0.6,8.6-0.9,13-0.9s8.7,0.3,13,0.9v-25.9h-25.9L315.1,147.4L315.1,147.4z"></path>

        <radialGradient id="SVGID_9_" cx="325.2289" cy="229.2754" r="267.9644" gradientTransform="matrix(1 0 0 -1 0 412.12)" gradientUnits="userSpaceOnUse">
		<stop offset="0.1612" style="stop-color:#8C2881"></stop>
            <stop offset="1" style="stop-color:#332375"></stop>
	</radialGradient>
        <path class="st8" d="M358.8,203c-8.5-6.7-19-10.5-30.7-10.5c-11.8,0-22.3,3.8-30.7,10.5c-12,9.2-19.7,23.6-19.7,40
		c0,2.6,0.3,5.4,0.8,7.9c1.3,9.5,49.7,131.2,49.7,131.2s48.4-121.8,49.7-131.2c0.5-2.6,0.8-5.4,0.8-7.9
		C378.5,226.5,370.9,212.2,358.8,203z M328.1,267.3c-13.4,0-24.3-10.9-24.3-24.3s10.9-24.3,24.3-24.3c13.4,0,24.3,10.9,24.3,24.3
		S341.5,267.3,328.1,267.3z"></path>

        <radialGradient id="SVGID_10_" cx="325.2289" cy="229.2754" r="267.9644" gradientTransform="matrix(1 0 0 -1 0 412.12)" gradientUnits="userSpaceOnUse">
		<stop offset="0.1612" style="stop-color:#8C2881"></stop>
            <stop offset="1" style="stop-color:#332375"></stop>
	</radialGradient>
        <path class="st9" d="M252.7,76.3L252.7,76.3l0,106.6c7.2-9,15.9-16.8,25.9-22.8V98.7h98.8v61.4c10,6,18.8,13.7,26,22.8V76.3
		L328.1,0L252.7,76.3z M328.1,32.3L370.7,76h-85.3L328.1,32.3z"></path>
</g>
    <radialGradient id="SVGID_11_" cx="325.2289" cy="229.2754" r="267.9644" gradientTransform="matrix(1 0 0 -1 0 412.12)" gradientUnits="userSpaceOnUse">
	<stop offset="0.1612" style="stop-color:#8C2881"></stop>
        <stop offset="1" style="stop-color:#332375"></stop>
</radialGradient>
    <path class="st10" d="M110.1,257.3c-2.1-5.3-5.1-10.1-8.8-14.3c-3.8-4.2-8.2-7.6-13.4-10.1S77,229,70.9,229H6.7v134.2h25.9v-45.6
	h39.2c6.1,0,11.8-1.2,16.9-3.8s9.5-5.8,13.1-10s6.4-8.9,8.4-14.2s3-10.8,3-16.4C113.3,267.9,112.3,262.6,110.1,257.3z M82.3,289.1
	c-3.2,3.9-7.2,5.8-11.9,5.8H32.6V253h36.6c2.2,0,5.1-0.1,6.9,0.7c1.8,0.7,3.8,1.9,5.5,3.7s2.9,4.2,3.9,6.9c1,2.7,1.5,5.7,1.5,9.1
	C87.1,279.9,85.5,285.2,82.3,289.1z"></path>
</svg>