<svg class="w-48 max-w-3/4 h-auto" width="192" height="80" viewBox="0 0 1921 804"
    xmlns="http://www.w3.org/2000/svg" fill-rule="evenodd" clip-rule="evenodd"
    stroke-linejoin="round" stroke-miterlimit="2">
    <path
        d="M80.196 410.2h35.91l78.458-189.702h-30.836L120.01 328.23c-7.806 19.127-14.052 37.863-20.687 55.818H97.76c-6.635-17.955-13.661-36.691-21.468-55.818L32.576 220.498H.178l80.018 189.703z"
        fill="#18918a" fill-rule="nonzero" />
    <path
        d="M289.798 414.884c30.444 0 54.644-10.148 73.379-22.638l-11.71-21.077c-17.173 10.929-35.128 17.955-57.766 17.955-42.154 0-74.16-24.98-74.16-74.16 0-47.228 30.445-73.77 65.573-73.77 34.738 0 56.986 22.249 56.986 67.135l8.196-8.978H209.003v24.98h160.419c.78-5.074 1.561-12.1 1.561-19.515 0-53.473-32.006-88.992-86.65-88.992-50.74 0-96.797 37.47-96.797 99.14 0 63.23 45.276 99.92 102.262 99.92zm108.896-4.684H430.7V298.962c22.638-39.422 49.57-54.253 78.063-54.253 14.832 0 21.857 1.951 35.128 6.635l7.416-27.712c-11.71-5.855-23.419-7.807-37.47-7.807-35.128 0-64.792 19.126-84.698 49.57h-1.171l-2.732-44.886h-26.542v189.693zm247.066 0h32.006V220.509H557.55v26.151h88.21v163.542zm12.49-229.504c14.442 0 25.761-9.758 25.761-24.98 0-14.832-11.319-24.98-25.76-24.98-14.832 0-25.761 10.148-25.761 24.98 0 15.222 10.929 24.98 25.76 24.98zM797.594 410.2h31.615V203.335c0-30.834 14.052-49.57 48.009-49.57 16.393 0 28.493 1.952 44.105 8.978l7.416-24.2c-17.954-7.416-35.908-10.929-54.644-10.929-52.302 0-76.501 30.445-76.501 76.892v205.696zM743.34 246.66h165.493v-26.152H798.765l-55.425 1.952v24.2z"
        fill="#606161" fill-rule="nonzero" />
    <g opacity=".4" fill="#149189" fill-rule="nonzero">
        <path
            d="M1227.943 163.324c-1.58 5.146-.292 11.396 2.87 13.971 35.596 28.867 75.621 40.142 115.117 32.442 3.542-.68 6.071-5.9 5.659-11.654-.421-5.758-3.63-9.875-7.171-9.196-37.017 7.22-74.525-3.346-107.884-30.4-3.179-2.53-7.02-.383-8.579 4.787l-.012.05m31.675 165.213c-.684 5.65 1.583 11.129 5.058 12.237.025.009.05.017.067.021 30.046 9.82 60.862 11.804 91.291 5.883 15.675-3.066 30.592-12.695 43.296-27.941 2.834-3.454 3.409-9.988 1.284-14.592-2.125-4.608-6.146-5.542-8.975-2.087-10.955 13.154-23.825 21.445-37.346 24.062-29.071 5.65-58.509 3.75-87.213-5.63-3.416-1.057-6.729 2.518-7.462 8.047m13.521-282.428c-1.338 5.329.233 11.416 3.512 13.591 18.763 12.442 39.158 16.934 59.275 13.054 43.021-8.295 82.03 41.675 87.13 111.613 1.878 25.72-1.109 51.763-8.563 74.658-1.659 5.088-.463 11.4 2.666 14.092 3.13 2.696 7.013.754 8.671-4.333 23.613-72.392 6.659-162.196-37.866-200.588-16.417-14.154-35.096-19.82-53.55-16.25-17.959 3.454-36.171-.562-52.913-11.675-3.283-2.154-7.025.43-8.346 5.767-.004.025-.012.046-.016.07" />
        <path
            d="M1226.71 213.74c-1.396 5.275.095 11.387 3.337 13.675 37.529 26.175 78.637 35.825 119.192 27.983 19.054-3.37 32.82-31.213 30.745-62.192-2.07-30.975-19.195-53.354-38.254-49.987-.22.041-.45.083-.675.129a102.187 102.187 0 0 1-24.65 1.712c-3.537-.183-6.5 4.334-6.616 10.092-.113 5.758 2.666 10.575 6.208 10.758 8.875.467 17.754-.145 26.575-1.833 11.975-2.63 22.992 11.025 24.608 30.492 1.617 19.47-6.783 37.383-18.758 40.004-.242.054-.48.1-.72.142-38.284 7.383-77.097-1.734-112.53-26.438-3.242-2.304-7.021.104-8.442 5.38-.004.028-.012.053-.02.083m9.774-95.325c-1.675 5.046-.529 11.342 2.563 14.092 12.054 10.433 24.808 18.55 38.012 24.187 3.434 1.463 6.938-1.87 7.838-7.442.9-5.575-1.15-11.279-4.575-12.741-12.246-5.23-24.075-12.759-35.242-22.434-3.116-2.612-6.941-.683-8.596 4.338" />
        <path
            d="M1350.91 280.374c-3.13.783-5.442 5.158-5.442 10.3v1.375c.458 5.679 3.637 9.696 7.133 9.008 34.571-6.725 59.246-57.746 55.108-113.954a159.516 159.516 0 0 0-2.758-20.067c-1.133-5.47-4.779-8.408-8.142-6.567-3.366 1.842-5.175 7.767-4.041 13.238 8.733 42.78-5.517 88.958-31.834 103.154-3.233 1.746-6.566 2.95-9.95 3.596l-.075-.083zm-115.738-11.257c-1.046 5.43.779 11.22 4.104 13.008 24.017 13.038 49.08 20.288 74.388 21.517 3.537.175 6.495-4.354 6.604-10.112.104-5.755-2.68-10.563-6.221-10.738-24.088-1.146-47.938-8.03-70.796-20.433-3.367-1.767-6.98 1.241-8.07 6.72a.102.102 0 0 1-.01.038m16.268-189.691c-1.625 5.116-.388 11.404 2.758 14.046.004 0 .008.004.012.008 26.167 21.996 55.8 30.712 85.055 25.017 11.629-2.255 23.379 2.17 33.216 12.512 3.05 2.925 6.984 1.28 8.78-3.68 1.691-4.666.908-10.657-1.8-13.79-12.334-13.022-27.08-18.626-41.684-15.85-26.708 5.228-53.767-2.705-77.667-22.767-3.145-2.659-7.016-.671-8.65 4.437-.008.02-.012.046-.02.067" />
    </g>
    <g fill-rule="nonzero">
        <path
            d="M928.05 410.2h256.251v-44.375h-101.875V43.95H1184.3V.2H928.05v43.75h101.875v321.875H928.05v44.376zm293.126 0h103.75c120.625 0 187.5-76.25 187.5-206.875 0-130-66.875-203.125-190-203.125h-101.25v410zm51.875-42.5v-325h45.625c93.75 0 140 57.5 140 160.625 0 103.75-46.25 164.375-140 164.375h-45.625z"
            fill="#149189" />
        <path
            d="M612.968 790.094c64.405 0 105.39-30.837 105.39-66.357 0-32.007-23.42-44.498-72.211-44.498H603.6c-24.981 0-39.423-7.026-39.423-21.859 0-8.977 5.464-16.003 14.832-21.858 10.54 4.684 22.25 7.026 32.008 7.026 40.985 0 73.382-24.591 73.382-65.186 0-15.223-7.416-29.275-16.003-38.253h49.182v-26.152H639.12c-8.197-3.123-17.175-4.684-28.104-4.684-40.205 0-74.554 26.543-74.554 67.918 0 22.64 10.539 39.424 23.42 49.182v1.561c-14.442 9.759-22.64 23.42-22.64 35.52 0 16.004 9.369 25.763 19.517 31.227v1.562c-20.297 11.71-31.226 26.933-31.226 42.156 0 33.568 32.007 52.695 87.434 52.695zm-1.951-169.015c-23.81 0-43.718-17.565-43.718-44.888 0-26.543 19.907-44.498 43.718-44.498 24.2 0 43.717 17.955 43.717 44.498 0 27.323-19.517 44.888-43.717 44.888zm4.293 145.595c-40.594 0-62.063-12.49-62.063-32.398 0-10.93 6.246-21.859 24.201-31.617 8.197 2.342 17.955 3.123 28.885 3.123h37.081c28.885 0 43.327 5.074 43.327 23.03 0 19.516-27.323 37.862-71.43 37.862zm245.52-59.331c20.688 0 33.96-5.074 51.134-11.32l-8.197-24.2c-14.052 6.245-24.981 8.977-35.91 8.977-22.64 0-37.082-11.71-37.082-39.423V424.742h-96.803v26.152h64.795v188.14c0 44.89 21.859 68.31 62.063 68.31zm565.09 0c45.279 0 85.874-37.862 85.874-102.658 0-58.55-27.714-96.412-78.848-96.412-22.249 0-46.45 11.32-63.624 28.885h-1.171l1.171-36.692v-75.724h-32.007v277.917h25.762l2.732-21.078h1.171c17.955 16.004 40.595 25.762 58.94 25.762zm-5.074-26.933c-13.662 0-33.569-6.245-51.524-22.249v-94.46c19.517-19.517 39.033-28.495 55.818-28.495 37.862 0 53.475 28.104 53.475 69.87 0 46.84-24.59 75.334-57.769 75.334zm181.114 26.933c26.934 0 53.867-14.052 74.945-30.446h1.17l2.733 25.762h26.153V586.34c0-47.23-24.982-78.066-76.896-78.066-33.179 0-65.186 14.833-84.312 27.323l12.49 21.859c17.565-10.93 41.766-22.64 66.357-22.64 36.692 0 49.573 21.86 50.353 47.621-97.974 7.807-137.397 28.495-137.397 71.041 0 33.96 28.884 53.866 64.405 53.866zm8.588-25.762c-21.859 0-41.766-8.978-41.766-30.446 0-24.981 24.982-40.985 106.171-47.62v49.962c-21.468 17.955-42.937 28.104-64.405 28.104zm258.792 25.762c20.687 0 33.958-5.074 51.133-11.32l-8.197-24.2c-14.052 6.245-24.981 8.977-35.91 8.977-22.64 0-37.082-11.71-37.082-39.423V424.742h-96.803v26.152h64.795v188.14c0 44.89 21.859 68.31 62.063 68.31z"
            fill="#606161" />
    </g>
    <g transform="translate(-237.521 -43.017) scale(4.16667)">
        <clipPath id="_clip1">
            <path
                d="M280.973 158.46c0 23.91 19.442 43.293 43.425 43.293 23.984 0 43.426-19.383 43.426-43.293 0-23.911-19.442-43.294-43.426-43.294-23.983 0-43.425 19.383-43.425 43.294z"
                clip-rule="nonzero" />
        </clipPath>
        <g clip-path="url(#_clip1)" fill="#149189" fill-rule="nonzero">
            <path
                d="M305.408 156.488c-.95-.2-1.267-1.555-1.827-2.131l-.122-1.63c-.974-.452-1.218-1.631-1.462-2.508.343-.075.805.076.731.627.414.151.488.853.975 1.128l-.122.753c.536.928 1.462 1.329 1.949 2.507-.22.501.462 1.027-.122 1.254m-4.02-8.901c-1.266-.803-2.435.476-3.775-.126-.195-.602-1.144-.351-1.583-.877-.926.05-.901 1.504-1.706 1.379-.365-.954-1.875-.778-1.826-1.756l-.975.126-.122-1.755c-1.265.35-.536-1.38-1.461-1.505-.78.301-.073.928-.122 1.379-1.34-.226-2.631.376-3.897.627-.098-.728.316-1.254.487-1.881.779-.226.901-1.078 1.34-1.379.827.426 1.681-.325 2.435-.376.61 1.505 2.388 1.379 2.558 2.883.853.126.438-.952 1.218-1.003-1.121-.501-2.119-1.605-2.679-2.507.512-.126.827.151.853.752.9.126 1.412.427 2.07 1.129l-.244.626c.828.527 1.17 1.43 1.706 2.132.438-.301.584-.501.73-1.129-.268-.175-.633-.401-.487-.877.316-.276.804-.552 1.218-.251l.365.502c.561-.126 1.121-.276 1.705-.377v.627c-.779.126-1.705-.325-2.313.376-.025.326.487.553.73.879.462.301 1.193-.101 1.583.376.853-.126 1.949.024 2.436-.627.097.803.39 1.98-.244 2.633m-8.89-12.914c.804-1.229-.536-1.931.365-2.884.585-.1.779.075.852.627.316.627 1.291.676 1.096 1.756-.389-.026-.755 0-.974.376.219.476.073 1.128-.243 1.253-.707-.326-1.047.05-1.828 0-.462-.752.561-.527.732-1.128m52.129-.501c1.242-.427 2.265-.677 3.41-1.38-.755-1.202-2.29-2.382-3.654-3.259-2.338-1.606-5.018.702-7.43-.502-1.218-.953-3.045 0-3.898-1.003-1.339.125-2.898-.326-4.019.376-2.703-.803-5.383-.101-8.16-.878.122-.702-.852-.301-.731-1.003-.779.126-1.486-.326-2.192 0-.463-1.003-1.705-.075-2.192-1.003-1.56.577-2.217-1.078-3.776-.501-.049 1.329 1.559.677 2.193 1.379-1.415.803-2.558 1.078-3.898 1.755-.243-.326-.756-.552-.731-1.003-.439-.2-.95-.576-1.462-.251.219.603-.584.953-.121 1.505-.707.376-1.34-.176-2.072-.125-.437.251-.778.802-1.338.752-.537-.702-1.292.301-1.828-.376-.413.25-.122 1.054-.731 1.003.147-.827-.657-.777-1.217-.753l.121.753c-1.656-.827-3.63-1.128-5.358-1.881-.805.326-1.462-.125-2.315.126-2.801-.602-2.557 3.435-4.993 3.636-.244.35-.852.552-.609 1.128.171.852.633 1.505 1.462 1.755-.318.727.632 1.204 0 1.755-1.048-.251-1.219.903-2.072 1.128-.828-.651-1.705-1.73-1.583-2.883-.292-.452-.707-.577-1.217-.501-.781.3-.293 1.128-.61 1.63-.852-.352-.608.626-1.34.5.22.678-.462 1.254.122 1.756.488-.175 1.047-.15 1.462-.502.488.477.414 1.204.244 1.881.536.25 1.437.903 1.339 1.755-.585 1.329-2.192.051-3.289.627.439 1.129-.243 2.081-.364 3.135.438.451 1.485.301 1.704 1.128-.292.176-.316.702-.852.502-.025 2.708-3.192 3.41-3.776 5.892 1.145 1.931-.681 3.661.121 5.642 1.633.953 1.706 3.285 3.411 4.012 1.876-.225 3.922.451 5.603-.752.536 1.329 2.484.3 2.923 1.756-.463.325-.487 1.502-.487 2.255.366.453.925.728 1.096 1.38.584 1.229.901 2.332 1.096 3.761-.901.427-.39 1.705-.975 2.383.196 3.26 2.217 6.219 2.68 9.528 1.267 1.128 3.021-.2 4.385 0 1.998-1.305 2.265-3.936 4.019-5.391.074-.476-.122-.853-.243-1.254.243-1.053 1.462-2.157 2.314-2.507.658-1.379.438-3.135-.122-4.389-.439-1.129.218-2.081.609-3.009 1.071-1.554 2.727-2.131 3.533-3.886.364-1.304 1.875-2.859.609-4.137-1.024.125-1.803.651-2.802.877-.219-.125-.073-.426-.122-.627.536-.928 2.242-1.304 3.41-2.006.829-.827 2.461-1.454 2.801-3.009.219-.702-.365-.827-.487-1.254.659-.601 2.145-.878 3.167-.376 1.292.426 1.292 2.332 2.923 2.257-.024 1.555.901 3.009 1.584 4.388-.195 2.207 2.265 1.053 2.436 3.01.292-.051.658.099.852-.126-.511-1.48-1.266-2.934-1.095-4.639.999-.678 1.607-1.855 2.556-2.633.026-1.103 1.194-.351 1.706-.752.731.802 1.363 1.955 1.705 3.134.439.125.706-.201 1.096-.251.146 2.031 1.559 3.887 1.462 6.019-.633-.227-.9-1.405-1.827-1.004v1.004c1.486.852 1.949 3.034 3.167 4.387.585.301 1.144.979 1.705 1.504 1.218-.099 2.314.728 3.41.252l-.122-.502c-1.218-.677-2.338-.125-3.41-1.129-.073-.35.146-.55.122-.877-.463-.1-.292-1.053-.853-.879-.219-1.302-.049-2.457-.731-3.508-.097-.502-.658-.953-1.096-1.004-.268-.827-.608-1.805-.122-2.507 1.146-.051 1.146 1.429 2.07 1.88.781.126 1.218-.927 1.705-1.253-.048-.552.099-1.179-.121-1.63-.073-.953-1.193-1.204-1.584-1.881.075-.326-.194-.827.245-1.003.292-.1.414.176.609.125.072.603.292.653.364 1.129h.611c.194-.376.194-1.003-.124-1.38.926-1.203 2.656-.526 3.412-2.006.024.502.195 1.179.852 1.129.073-.377.341-.677.244-1.129.073-.551-.512-.476-.974-.376-.536-.827.828-1.329.365-2.256-.194-.577-.585-1.079-.609-1.755-.61.049-.901-.678-1.34-1.003.024-.451.56-.702.365-1.254-.121-.2-.341-.2-.608-.377l.608-.501c.683.726 2.143 1.228 2.436 2.508.341.075.537-.151.853-.126a2.458 2.458 0 0 0-.365-1.629c-.561.074-.342-.854-.975-.753-.049-1.028.731-1.605 1.705-1.755-.049-.953.609-1.604.366-2.634-.755-1.077-1-2.155-.853-3.51h-.609c-.048.251.097.577 0 .753-.804-.402-2.291-.301-2.436-1.253-.414-2.007 1.827-.628 2.558-1.38.463-.151.682.225.974.502 1.194.2.195-.928.853-1.379.415-.102.658.174.974.25 1.608-.076-.073 1.655.975 2.257.705.927 1.607 1.981 2.801 2.256.414-.977-.195-1.855-.365-2.757-.61-.427-.902-.477-1.218-1.003" />
            <path
                d="M342.19 138.554c-.049.201.098.503-.12.628-.342-.024-.635-.2-.855-.502v-1.002c.634-.076.683.45.975.876m.853 2.133c.414.651 1.803.427 1.584 1.506-.22.803-1.023-.227-1.34.752-1.023-.325-.56-1.506-.852-2.259l.608.001zm1.584 3.762c-.292.828.536 1.18.243 2.007-.926.678-2.606.451-2.801 1.881-.853.326-1.267-.928-1.339-1.505.608-1.404 2.215-1.279 2.679-2.634l-.122-.878c.585.302 1.291.251 1.34 1.129m-5.116 9.657c0 .325.439.351.488.501.268.753-.536 1.329 0 2.007-.878.452-.756-.376-1.218-.753l.122-1.755h.608zm.854 3.637c.778.201.608 1.153 1.582.878.22.726.853 1.655.122 2.258-.853.3-.853-1.18-1.704-.502.39-1.405-1-1.355 0-2.634m-1.341 3.261c-.073.752-.561 1.58.122 2.257-.731.754-.852 1.731-1.463 2.509-.706-.477-1.753-.076-2.434-.627-.075-.904-.853-1.481-.611-2.509 1.536-.225 2.023-1.705 3.045-2.508.659-.251.975.678 1.341.878m6.577 2.633c-.123.352.17.527.364.753 1.414-.651 2.851.476 4.264.753.705.326.536 1.656 1.704 1.505.975.252 1.512-1.355 2.559-.878.341 1.054-.512 1.204-1.097 1.631-.512 0-.828-.377-1.462-.377.171.677.634 1.73 1.097 2.509-1.51.702-1.875-1.631-2.923-1.129-.439-.126-.39.476-.732.501-1.242.251-1.387-1.078-2.313-1.379v-1.255c-.828-.602-1.998-.602-2.801-1.003.487-.577-1.023-2.358.731-1.881.145.226.365.275.609.25m-1.706 1.756c-.39.326-1.314-.025-.853-.627.293.201.926.05.853.627m-4.871 2.508c0 .226-.244.326-.366.502-.487.075-1.023-.025-.975-.627.366-.15 1.146-.301 1.341.125m3.411-.125v.501c-.585.076-.828.954-1.585.628-.485-.527-.973-.476-1.34-1.004 1.025-.05 1.804-.451 2.925-.125m7.551 4.013c.315.678.437 1.832.365 2.634 1.461.502 1.145 2.107 2.071 3.136.048.626.437 1.253.121 1.88-.121 1.454-.804 2.383-1.705 3.512-1.632 1.279-2.801 3.312-4.994 3.638-.731-.478-1.802.05-2.557-1.004-1.657-.302-1.097-2.408-2.314-3.386-2.777.125-5.383 1.905-8.161 1.755-.536-.225-.22-.803-.487-1.129.828-.501.39-1.755.852-2.508-.657-.3-.244-1.078-.365-1.63.561-.677.414-1.681.609-2.508 2.972-1.029 5.261-3.01 7.673-4.766.317.05.488.427.853.376l.243-.626c.341-.026.317-.428.487-.628.95-1.054 2.582-.2 3.655.251.511.627-1.534 1.329-.122 1.505.268.376.389.827.973 1.004 1.317-.603.415-2.583 1.462-3.512 1.341-.05.414 1.555 1.341 2.006m-41.046-1.379c.341.753.877 1.58.487 2.509-.633.776-.756 1.804-.975 2.759-.658.752-.462 2.533-1.949 2.256-.194-.451-.657-.2-.852-.627-.535-1.781.828-3.185.852-4.765 1.048-.452 1.608-1.83 2.437-2.132m49.572 11.663c.292.226.73.075 1.096.126.731 1.454-1.316 1.729-.975 3.01-.925.176-.681 1.479-1.339 2.132-.366-.051-.999.676-1.096-.126 0-.828.195-1.83.608-2.508.391.051.731-.051.975-.376-1.194-1.279.731-1.506-.244-2.885.366.075 1.096.101.975.627m-12.667 4.891c.438.378.438.878.243 1.13-.56.776-1.17 1.028-1.948.878-.562.251-.342-.403-.487-.628.292-1.204 1.29-1.355 2.192-1.38" />
            <path
                d="M342.678 170.535c-.171.2-.146.602-.487.628l-.243-.628h.73zm-2.679-13.921c.316.05.682-.15.975.126.121.501-.172.451-.489.627l-.486-.753zm-.853 6.647c.755-.677 1.655-.074 2.436-.25.389 1.078-1.244.4-.853 1.505-.561.526.194 1.129.121 1.755-.535.126-1.218.276-1.704.126-.561-1.029-.05-2.183 0-3.136" />
        </g>
    </g>
    <path
        d="M1309.776 617.234c0-102.946-86.654-186.642-193.525-186.642-106.875 0-193.53 83.696-193.53 186.642 0 102.942 86.655 186.638 193.53 186.638 106.87 0 193.525-83.696 193.525-186.638zm-12.5 0c0 96.175-81.18 174.138-181.025 174.138-99.85 0-181.03-77.963-181.03-174.138 0-96.18 81.18-174.142 181.03-174.142 99.846 0 181.025 77.963 181.025 174.142z"
        fill="#58595b" />
</svg>