<svg xmlns="http://www.w3.org/2000/svg" viewBox="0 0 140 104.74"><path style="fill: #ED3030;" d="M90.66 41.79a7.81 7.81 0 0 1 .34 2.24 7.54 7.54 0 0 1-1.75 4.84 7.81 7.81 0 0 1-6 2.81 7.7 7.7 0 0 1-3.4-.81 10 10 0 0 1-2.85-2 9.49 9.49 0 0 1-2.43-7.08 8.76 8.76 0 0 1 .15-1.24 20.16 20.16 0 0 1 4-8.18c2.86 1.92 6.46 3.32 9.06 5.34a7.89 7.89 0 0 1 2.86 4.08zm27.25-13.23a7.26 7.26 0 0 1-7.47-4.45 6.89 6.89 0 0 1-.44-1.95 7.43 7.43 0 0 1 6.9-7.82c6.47-.52 7.75 5.95 8.2 9.77 0 .4.09.77.12 1.1s0 .45.06.65a15.48 15.48 0 0 1-7.37 2.7zm-5.22 15.25c10.3 0 18.41-8.35 17.58-18.07C140.39 16.41 140 3.21 140 1.87c0-1.5-.46-1.91-.87-1.91s-.94.21-1 2a29.74 29.74 0 0 1-8.28 20.21c-1.61-7-6.89-10.09-11.72-10.09-7.09 0-11 5.77-10.71 10 .47 6.73 5.35 9.36 9.81 9.36a17.31 17.31 0 0 0 8.13-2.26c-.81 6.55-5.3 11.9-12.59 12-7.11.1-14.17-6.21-13.16-17.18.37-4 2.7-8.84 5.81-10.59 4.24-2.39 4.75-1.57 5.59-3 1.39-2.4 1.79-4-3.37-1.62A60 60 0 0 0 82.36 24.1q-1.16 1.18-2.25 2.43a14.5 14.5 0 0 1-2.68-2.43l-.18-.23a10 10 0 0 1-2.49-6.49c0-5.83 6-12.6 15.08-10a1.172 1.172 0 1 0 .45-2.3c-8.18-1.46-14.42 2.23-17.45 7.39-1.73 3-4.17 7.61-6.79 11.62a33.71 33.71 0 0 1-4.41 5.63c-.4-2-.79-3.93-1.19-5.63a46.54 46.54 0 0 0-2.07-7C53.25 4.87 34.64 1.87 34.36 24.1a47.86 47.86 0 0 0 .25 5.33q.09.91.14 1.74c.79 13.59-6.79 11.22-8.93 3.79-.29-1-.59-2.35-.88-3.79-.46-2.32-.89-4.94-1.23-7.07-.33-2.11-.57-3.74-.66-4.12-.33-1.46-3.63-2.86-5.73-4.71-1.34-1.18-1.11.42-1.52 2.51-.27 1.41-.67 3.67-1.22 6.33-.45 2.17-1 4.61-1.65 7.07a68.88 68.88 0 0 1-2.2 6.93c-.42 1.09-1.06 2.27-2.18-.06a35 35 0 0 1-1.71-6.86c-.37-2.1-.7-4.52-.91-7.07A55.72 55.72 0 0 1 6 12.87c.28-2.24-4.39-5.75-5.1-4.71C-.35 10.02-.25 16.87.88 24.1c.37 2.38.86 4.79 1.44 7.07C3.46 35.61 5 39.55 6.76 41.79q.2.25.4.47c1.94 2.09 3.43 2 4.89.07a5.26 5.26 0 0 0 .35-.54c1.17-2 2.35-6.44 3.33-10.61.63-2.68 1.17-5.26 1.56-7.07.19-.86.34-1.54.46-2 .51-1.95.66-.82.76 0 0 .23.11.94.28 2a62.44 62.44 0 0 0 1.53 7.07c1.12 4 2.84 8.22 5.43 10.61a7.87 7.87 0 0 0 1.64 1.18 6.17 6.17 0 0 0 7.74-1.18 10.87 10.87 0 0 0 1.76-2.36 12.73 12.73 0 0 0 .11 2.36c.61 4.81 4.08 7.53 8.4 5.13a50.65 50.65 0 0 0 7.53-5.13c1.65-1.34 3.24-2.77 4.9-4.32a23.94 23.94 0 0 0 1.39 4.32c3.16 7.18 8.48 7.09 9.34 4.23a7.32 7.32 0 0 0-.21-4.23 19.86 19.86 0 0 0-6.22-8.7q.84-.94 1.64-1.92a64.77 64.77 0 0 0 5.07-7.07q1-1.65 1.94-3.37a10.83 10.83 0 0 0 .57 3.37 13.64 13.64 0 0 0 5.26 6.92l-.12.16a21.17 21.17 0 0 0-4.63 9.64c-.07.31-.12.64-.17 1a12.67 12.67 0 0 0-.12 1.68 12.43 12.43 0 0 0 1.18 5.37A12.47 12.47 0 0 0 84 55.94a12.27 12.27 0 0 0 11.25-7.07 12.31 12.31 0 0 0 1.12-5.17 12.12 12.12 0 0 0-.15-1.9 13.16 13.16 0 0 0-5.56-8.63c-1-.68-2-1.35-2.94-2-2.09-1.34-4.1-2.51-5.5-3.37a48.19 48.19 0 0 1 3.47-3.7 59.36 59.36 0 0 1 12.55-9.23 18.18 18.18 0 0 0-3.75 9.22c-1.34 10.03 6.38 19.71 18.19 19.71zM53.4 31.18a18.57 18.57 0 0 1 3.6 1.46c.1.56.15 1.1.23 1.57a64.49 64.49 0 0 1-10 7.57c-.48.28-.91.52-1.28.71a2.26 2.26 0 0 1-3.23-.71c-1.72-2.55-.72-8.84 4.7-10.6a9.72 9.72 0 0 1 2.85-.46 10.81 10.81 0 0 1 3.14.46zm12.51 10.61a8.25 8.25 0 0 1 .58 2.08c.24 1.88-1.33 2.13-2.13-.35-.12-.36-.26-1-.43-1.76-.23-1.08-.5-2.52-.81-4.18a14.66 14.66 0 0 1 2.79 4.18zM40.4 31.18a12 12 0 0 0-1.69 2.21 19.52 19.52 0 0 0 .2-2.21 17.57 17.57 0 0 0-.07-2.31q-.25-2.57-.28-4.76c-.32-20.35 12.69-16.77 15.72-4.48.33 1.32.67 2.86 1 4.47.37 1.79.74 3.66 1.07 5.43-3.79-1.74-7.81-2.34-11.3-1.22a11.14 11.14 0 0 0-4.65 2.87z"></path><path d="M29.79 63.76h1.85l-3 10.57h-1.82l-2.57-8-2.57 8h-1.82l-3-10.57h1.88l2.12 7.73 2.48-7.73h1.86l2.52 7.79zm9.01 8.51a3.27 3.27 0 0 1-3.28 2.3 3.86 3.86 0 0 1-.18-7.7c2.24 0 3.55 1.48 3.55 3.77a2.56 2.56 0 0 1 0 .55h-5.36a1.94 1.94 0 0 0 2 1.89 1.75 1.75 0 0 0 1.82-1.27zm-1.66-2.4a1.63 1.63 0 0 0-1.79-1.61 1.74 1.74 0 0 0-1.77 1.61zm4.13 2.08a1.36 1.36 0 0 0 1.48 1.24c.72 0 1.09-.39 1.09-.84s-.27-.69-.85-.81l-1.07-.24a2.19 2.19 0 0 1-2-2.12 2.52 2.52 0 0 1 2.71-2.31 2.56 2.56 0 0 1 2.8 2L44 69.3a1.25 1.25 0 0 0-1.34-1.09.94.94 0 0 0-1 .84.8.8 0 0 0 .73.76l1.1.22a2.29 2.29 0 0 1 2.09 2.21 2.47 2.47 0 0 1-2.74 2.33 2.73 2.73 0 0 1-3-2.19zm8.01-4.87h1.51v1.54h-1.51v3.37c0 .64.28.91.92.91a3.7 3.7 0 0 0 .6-.06v1.43a2.73 2.73 0 0 1-1.06.16 2 2 0 0 1-2.18-2.16v-3.66h-1.33v-1.53h.37a1 1 0 0 0 1.12-1.13v-1.08h1.57zm13.07 4.6h-4.48l-1 2.65H55l4.12-10.57h2.07l4.11 10.58h-2zm-3.85-1.65h3.22l-1.61-4.33zM69 74.55a2.69 2.69 0 0 1-2.74-2.89v-4.58h1.73v4.27c0 .89.42 1.66 1.46 1.66a1.45 1.45 0 0 0 1.52-1.63v-4.3h1.73v5.94a11.83 11.83 0 0 0 .07 1.33h-1.7a5.41 5.41 0 0 1-.06-.81A2.32 2.32 0 0 1 69 74.55zm6.62-2.6a1.36 1.36 0 0 0 1.48 1.24c.72 0 1.09-.39 1.09-.84s-.27-.69-.85-.81l-1.07-.24a2.19 2.19 0 0 1-2-2.12A2.52 2.52 0 0 1 77 66.87a2.56 2.56 0 0 1 2.8 2l-1.46.42A1.25 1.25 0 0 0 77 68.21a.94.94 0 0 0-1 .84.8.8 0 0 0 .73.76l1.1.22a2.29 2.29 0 0 1 2.09 2.21 2.47 2.47 0 0 1-2.74 2.33 2.73 2.73 0 0 1-3-2.19zm8.01-4.87h1.51v1.54h-1.51v3.37c0 .64.28.91.92.91a3.7 3.7 0 0 0 .6-.06v1.43a2.73 2.73 0 0 1-1.06.16 2 2 0 0 1-2.18-2.16v-3.66h-1.34v-1.53h.37a1 1 0 0 0 1.12-1.13v-1.08h1.57zM91 68.79a3.79 3.79 0 0 0-.57 0c-1.34 0-2 .78-2 2.13v3.46h-1.68v-7.3h1.69v1.16a2.2 2.2 0 0 1 2.1-1.25 2.48 2.48 0 0 1 .46 0zm3 1.39l1.89-.31c.42-.06.54-.27.54-.52 0-.61-.42-1.1-1.37-1.1a1.4 1.4 0 0 0-1.49 1.31L92 69.22a2.85 2.85 0 0 1 3-2.35c2.24 0 3.09 1.27 3.09 2.71v3.61a6.6 6.6 0 0 0 .09 1.16h-1.57a4 4 0 0 1-.07-.92 2.54 2.54 0 0 1-2.24 1.15 2.28 2.28 0 0 1-2.46-2.19A2.24 2.24 0 0 1 94 70.18zm2.4 1.15V71l-1.89.28c-.54.09-1 .39-1 1a1 1 0 0 0 1.06.94 1.65 1.65 0 0 0 1.86-1.89zm3.67 3.01v-10.8h1.73v10.8zm4.68-10.95a1.13 1.13 0 0 1 1.13 1.13 1.13 1.13 0 1 1-1.13-1.13zm-.85 10.95v-7.26h1.72v7.26zm5.55-4.16l1.86-.28c.42-.06.54-.27.54-.52 0-.61-.42-1.1-1.37-1.1a1.4 1.4 0 0 0-1.48 1.3l-1.58-.36a2.85 2.85 0 0 1 3.04-2.35c2.24 0 3.09 1.27 3.09 2.71v3.61a6.56 6.56 0 0 0 .09 1.16H112a4 4 0 0 1-.07-.92 2.54 2.54 0 0 1-2.24 1.15 2.28 2.28 0 0 1-2.46-2.19 2.24 2.24 0 0 1 2.22-2.21zm2.4 1.15V71l-1.89.28c-.54.09-1 .39-1 1a1 1 0 0 0 1.06.94 1.65 1.65 0 0 0 1.83-1.89zm5.37 3.01h-1.73v-7.26h1.69v1a2.41 2.41 0 0 1 2.14-1.21 2.57 2.57 0 0 1 2.63 2.88v4.59h-1.73v-4.3c0-.89-.4-1.61-1.49-1.61a1.52 1.52 0 0 0-1.51 1.72zM6.69 83.06a2 2 0 0 0-2.07-1.63 1.67 1.67 0 0 0-1.82 1.53A1.37 1.37 0 0 0 4 84.32l1.52.31c1.86.37 2.86 1.55 2.86 3s-1.29 3.24-3.7 3.24a3.76 3.76 0 0 1-4.09-3.24l1.67-.48a2.27 2.27 0 0 0 2.42 2.12c1.27 0 1.92-.64 1.92-1.46s-.51-1.24-1.42-1.43l-1.49-.31a3 3 0 0 1-2.68-3 3.45 3.45 0 0 1 3.59-3.2 3.42 3.42 0 0 1 3.7 2.7zm3.52 10.53l1.79-3.8-3.1-6.4h2l2.09 4.59 2-4.59h1.83l-4.62 10.2zm7.46-2.93v-7.27h1.66v.92a2.48 2.48 0 0 1 2.15-1.13 2.28 2.28 0 0 1 2.18 1.28A2.55 2.55 0 0 1 26 83.18a2.49 2.49 0 0 1 2.57 2.76v4.71H26.9v-4.42a1.33 1.33 0 0 0-1.4-1.49 1.51 1.51 0 0 0-1.5 1.61v4.31h-1.7v-4.43a1.32 1.32 0 0 0-1.4-1.49 1.49 1.49 0 0 0-1.51 1.61v4.31zm12.59 2.83v-10.1h1.67v1a2.61 2.61 0 0 1 2.31-1.15c2.15 0 3.36 1.64 3.36 3.79s-1.33 3.84-3.42 3.84a2.63 2.63 0 0 1-2.18-1v3.65zm3.65-8.73a2.29 2.29 0 1 0 2 2.25 2 2 0 0 0-2-2.25zm6.65 5.9h-1.73V79.87h1.73v4.24a2.71 2.71 0 0 1 4.73 2v4.59h-1.73v-4.3c0-.89-.4-1.61-1.49-1.61a1.51 1.51 0 0 0-1.51 1.64zm13.35-3.64a3.77 3.77 0 1 1-3.77-3.85 3.7 3.7 0 0 1 3.77 3.85zm-1.75 0a2.03 2.03 0 1 0-4.06 0 2.03 2.03 0 1 0 4.06 0zm4.72 3.64h-1.73v-7.27h1.69v1A2.41 2.41 0 0 1 59 83.18a2.57 2.57 0 0 1 2.63 2.88v4.59h-1.75v-4.3c0-.89-.4-1.61-1.49-1.61a1.52 1.52 0 0 0-1.51 1.72zm6.75 2.93l1.75-3.8-3.1-6.4h2l2.09 4.59 2-4.59h1.83l-4.62 10.2zm16.02-13.72a5.51 5.51 0 1 1-5.37 5.5 5.31 5.31 0 0 1 5.37-5.5zm0 9.32a3.83 3.83 0 1 0-3.53-3.82 3.53 3.53 0 0 0 3.53 3.81zm11.08-4.08a3.8 3.8 0 0 0-.57 0c-1.34 0-2 .78-2 2.13v3.46h-1.68v-7.31h1.69v1.16a2.2 2.2 0 0 1 2.1-1.25 2.49 2.49 0 0 1 .46 0zm2.45 1.91a2.07 2.07 0 0 0 2 2.28A1.83 1.83 0 0 0 97 87.96l1.52.55a3.37 3.37 0 0 1-3.31 2.36 3.73 3.73 0 0 1-3.76-3.86 3.69 3.69 0 0 1 3.71-3.85 3.25 3.25 0 0 1 3.33 2.39l-1.55.57a1.71 1.71 0 0 0-1.76-1.36 2 2 0 0 0-2 2.26zm8.5 3.64h-1.73V79.87h1.73v4.24a2.71 2.71 0 0 1 4.73 2v4.59h-1.73v-4.3c0-.89-.4-1.61-1.49-1.61a1.51 1.51 0 0 0-1.51 1.64zm13.12-2.08a3.27 3.27 0 0 1-3.28 2.3 3.86 3.86 0 0 1-.18-7.71c2.24 0 3.55 1.48 3.55 3.77a2.57 2.57 0 0 1 0 .55h-5.31a1.94 1.94 0 0 0 2 1.89 1.75 1.75 0 0 0 1.82-1.27zm-1.66-2.36a1.63 1.63 0 0 0-1.79-1.61 1.74 1.74 0 0 0-1.77 1.61zm4.14 2.05a1.36 1.36 0 0 0 1.48 1.24c.72 0 1.09-.39 1.09-.84s-.27-.69-.85-.81l-1.07-.24a2.19 2.19 0 0 1-2-2.12 2.52 2.52 0 0 1 2.67-2.34 2.56 2.56 0 0 1 2.8 2l-1.46.42a1.25 1.25 0 0 0-1.34-1.09.94.94 0 0 0-1 .84.8.8 0 0 0 .73.76l1.1.22a2.29 2.29 0 0 1 2.09 2.21 2.47 2.47 0 0 1-2.75 2.35 2.73 2.73 0 0 1-3-2.19zm8.01-4.88h1.51v1.54h-1.51v3.37c0 .64.28.91.92.91a3.7 3.7 0 0 0 .6-.06v1.43a2.73 2.73 0 0 1-1.06.16 2 2 0 0 1-2.18-2.16v-3.65h-1.34v-1.54h.37a1 1 0 0 0 1.12-1.13v-1.09h1.57zm7.37 1.72a3.8 3.8 0 0 0-.57 0c-1.34 0-2 .78-2 2.13v3.46h-1.73v-7.31h1.69v1.16a2.2 2.2 0 0 1 2.1-1.25 2.49 2.49 0 0 1 .46 0zm3.02 1.38l1.86-.28c.42-.06.54-.27.54-.52 0-.61-.42-1.1-1.37-1.1a1.4 1.4 0 0 0-1.49 1.28l-1.58-.36a2.85 2.85 0 0 1 3.06-2.37c2.24 0 3.09 1.27 3.09 2.71v3.61a6.56 6.56 0 0 0 .09 1.16h-1.61a4 4 0 0 1-.07-.92 2.54 2.54 0 0 1-2.2 1.17 2.28 2.28 0 0 1-2.46-2.19 2.24 2.24 0 0 1 2.14-2.19zm2.4 1.15v-.33l-1.89.28c-.54.09-1 .39-1 1a1 1 0 0 0 1.06.94 1.65 1.65 0 0 0 1.84-1.89zM13.3 103.58h-1.88l-.42 1.06h-.95l1.77-4.66h1l1.76 4.66h-1zm-1.57-.83H13l-.64-1.76zm5.8-1.41a.79.79 0 0 0-.84-.66.66.66 0 0 0-.72.59.53.53 0 0 0 .5.53l.64.12a1.42 1.42 0 0 1 1.29 1.37 1.52 1.52 0 0 1-1.67 1.44 1.69 1.69 0 0 1-1.83-1.46l.83-.22a.93.93 0 0 0 1 .87c.48 0 .75-.24.75-.57s-.2-.48-.56-.55l-.64-.13a1.35 1.35 0 0 1-1.21-1.33 1.53 1.53 0 0 1 1.61-1.47 1.52 1.52 0 0 1 1.65 1.21zm4.54 3.3v-1.93h-2v1.93h-.9v-4.66h.9v1.89h2V100H23v4.66zm1.93 0v-4.66h2.89v.89h-2v1h1.8v.81h-1.8v1.08h2v.85zm5.19-1.77h-.47v1.79h-.9V100h1.8a1.39 1.39 0 0 1 1.47 1.43 1.32 1.32 0 0 1-1 1.32l1 1.91h-1zm.26-.78a.65.65 0 1 0 0-1.3h-.73v1.3zm3.97 2.55v-4.66h2.91v.89h-2v1.15h1.8v.85h-1.8v1.81zm3.66 0v-4.66H38v4.66zm4.26-3.3a.79.79 0 0 0-.84-.66.66.66 0 0 0-.72.59.53.53 0 0 0 .5.53l.64.12a1.42 1.42 0 0 1 1.29 1.37 1.52 1.52 0 0 1-1.67 1.44 1.69 1.69 0 0 1-1.83-1.46l.83-.22a.93.93 0 0 0 1 .87c.48 0 .75-.24.75-.57s-.2-.48-.56-.55l-.64-.13a1.35 1.35 0 0 1-1.21-1.33 1.67 1.67 0 0 1 3.26-.25zm1.36.97a2.34 2.34 0 0 1 2.3-2.44 2 2 0 0 1 2.11 1.54l-.85.27a1.21 1.21 0 0 0-1.27-.94 1.55 1.55 0 0 0 0 3.1 1.28 1.28 0 0 0 1.29-1l.84.26a2.1 2.1 0 0 1-2.13 1.58 2.32 2.32 0 0 1-2.29-2.37zm8.15 2.33v-1.93h-2v1.93h-.9v-4.66h.9v1.89h2V100h.9v4.66zm4.15-1.91v1.91h-.6v-4.66h1.68a1.38 1.38 0 1 1 0 2.75zm.92-.58a.8.8 0 1 0 0-1.6H55v1.6zm3.7.58h-.69v1.91h-.64v-4.66H60a1.34 1.34 0 0 1 1.41 1.39 1.3 1.3 0 0 1-1.12 1.32l1.1 2h-.74zm.29-.58a.8.8 0 1 0 0-1.6h-1v1.6zm2.41 2.49v-4.66H63v4.66zm4.95 0l-2.49-3.77v3.8h-.64v-4.66H65l2.3 3.58v-3.58h.64v4.66zm1.54-2.33a2.3 2.3 0 0 1 2.29-2.44 2 2 0 0 1 2 1.48l-.59.21a1.37 1.37 0 0 0-1.44-1.1 1.85 1.85 0 0 0 0 3.67 1.47 1.47 0 0 0 1.47-1.12l.57.21a2 2 0 0 1-2 1.5 2.28 2.28 0 0 1-2.3-2.41zm5.19 2.33v-4.66h.65v4.66zm2.45-1.91v1.91h-.64v-4.66h1.68a1.38 1.38 0 1 1 0 2.75zm.92-.58a.8.8 0 1 0 0-1.6h-.92v1.6zm4.63 1.19h-2l-.49 1.3h-.68l1.83-4.66h.74l1.83 4.66h-.69zm-1.82-.6h1.59l-.8-2.09zm3.67 1.9v-4.66h.64v4.06h2.18v.6zm4.84-2.33A2.3 2.3 0 0 1 91 99.87a2 2 0 0 1 2 1.48l-.59.21a1.37 1.37 0 0 0-1.41-1.09 1.85 1.85 0 0 0 0 3.67 1.47 1.47 0 0 0 1.47-1.12l.57.21a2 2 0 0 1-2 1.5 2.28 2.28 0 0 1-2.35-2.42zm7.13-2.44a2.43 2.43 0 1 1-2.32 2.43 2.31 2.31 0 0 1 2.32-2.43zm0 4.27a1.85 1.85 0 1 0-1.67-1.84 1.68 1.68 0 0 0 1.67 1.85zm6.33.5l-2.49-3.77v3.8H99v-4.66h.85l2.3 3.58v-3.58h.64v4.66zm1.85 0v-4.66h1.61a2.33 2.33 0 0 1 0 4.66zm1.58-.57a1.77 1.77 0 0 0 0-3.52h-1v3.52zm3.03-1.02v-3.07h.63v3.05a1 1 0 1 0 2 0v-3.05h.64v3.07a1.66 1.66 0 1 1-3.32 0zm4.13-.74a2.3 2.3 0 0 1 2.26-2.44 2 2 0 0 1 2 1.48l-.59.21a1.37 1.37 0 0 0-1.44-1.1 1.85 1.85 0 0 0 0 3.67 1.47 1.47 0 0 0 1.47-1.12l.57.21a2 2 0 0 1-2 1.5 2.28 2.28 0 0 1-2.27-2.41zm6.81-1.73v4.06h-.64v-4.06h-1.54v-.6h3.72v.6zm4.05-.71a2.43 2.43 0 1 1-2.32 2.43 2.31 2.31 0 0 1 2.32-2.43zm0 4.27a1.85 1.85 0 1 0-1.67-1.84 1.68 1.68 0 0 0 1.67 1.85zm4.53-1.41h-.69v1.91h-.64v-4.66h1.74a1.34 1.34 0 0 1 1.41 1.39 1.3 1.3 0 0 1-1.12 1.32l1.1 2h-.74zm.29-.58a.8.8 0 1 0 0-1.6h-1v1.6z"></path></svg>