<svg version="1.1" id="Layer_1" xmlns="http://www.w3.org/2000/svg" xmlns:xlink="http://www.w3.org/1999/xlink" x="0px" y="0px" width="474px" height="178px" viewBox="0 0 474 178" enable-background="new 0 0 474 178" xml:space="preserve">
<g id="Page-1">
	<g id="xpress-full" transform="translate(-1.000000, 0.000000)">
		<g id="Group" transform="translate(201.000000, 140.000000)">
			<g transform="translate(111.000000, 0.000000)">
				<path id="Path" fill="#FFFFFF" d="M162,25.7c0.4-0.9,0.6-2,0.6-3.2c0-1.4-0.3-2.5-0.8-3.3c-0.5-0.8-1.2-1.5-2-2      s-1.7-0.9-2.7-1.2c-1-0.3-1.8-0.6-2.7-0.9c-0.8-0.3-1.5-0.7-2-1.1s-0.8-1-0.8-1.7c0-0.8,0.3-1.5,0.9-2s1.3-0.8,2.2-0.8      c0.8,0,1.5,0.2,2.3,0.5c0.7,0.4,1.6,0.8,2.6,1.3l1.8-3.8c-2.3-1.4-4.6-2.1-6.8-2.1c-1.1,0-2.1,0.2-3,0.5      c-0.9,0.4-1.8,0.9-2.4,1.5c-0.7,0.6-1.2,1.4-1.6,2.2c-0.4,0.8-0.6,1.8-0.6,2.7c0,1.4,0.3,2.5,0.8,3.2c0.5,0.8,1.2,1.4,2,1.9      s1.7,0.9,2.7,1.1c1,0.3,1.8,0.6,2.7,0.9c0.8,0.3,1.5,0.7,2,1.2s0.8,1.2,0.8,2.1c0,0.4-0.1,0.7-0.2,1.1c-0.1,0.4-0.4,0.7-0.7,1      c-0.3,0.3-0.7,0.5-1.2,0.7s-1.1,0.3-1.7,0.3c-0.4,0-0.9-0.1-1.3-0.3c-0.5-0.2-0.9-0.4-1.4-0.6c-0.5-0.3-0.9-0.5-1.4-0.9      c-0.5-0.3-0.9-0.6-1.4-0.9l-1.7,4c1.4,0.9,2.7,1.6,3.9,2c1.3,0.5,2.5,0.7,3.8,0.7c1.1,0,2.1-0.2,3.1-0.5c1-0.3,1.8-0.8,2.5-1.5      C161,27.4,161.5,26.6,162,25.7"/>
                <polygon fill="#FFFFFF" points="53.9,6.2 46,16.9 38,6.2 34.6,6.2 34.6,29.6 39.2,29.6 39.2,15 39.3,15 46,24.2 52.7,15       52.7,15 52.7,29.6 57.3,29.6 57.3,6.2     "/>
                <rect id="Rectangle" x="24.4" y="6.2" fill="#FFFFFF" width="4.6" height="23.4"/>
                <path id="Shape" fill="#FFFFFF" d="M86.8,22.6c0.7-1.5,1-3.1,1-4.8c0-1.7-0.3-3.3-1-4.8c-0.7-1.5-1.6-2.8-2.7-3.9      c-1.2-1.1-2.5-2-4.1-2.6s-3.3-1-5.1-1c-1.8,0-3.5,0.3-5.1,1c-1.6,0.6-2.9,1.5-4.1,2.6c-1.2,1.1-2.1,2.4-2.7,3.9      c-0.7,1.5-1,3.1-1,4.8c0,1.7,0.3,3.4,1,4.8c0.7,1.5,1.6,2.8,2.7,3.9c1.1,1.1,2.5,2,4.1,2.6c1.6,0.6,3.3,0.9,5.1,0.9      c1.8,0,3.5-0.3,5.1-0.9s2.9-1.5,4.1-2.6C85.2,25.3,86.2,24,86.8,22.6 M82.5,21c-0.4,1-1,1.9-1.7,2.6c-0.7,0.7-1.6,1.3-2.6,1.7      c-1,0.4-2.1,0.6-3.2,0.6c-1.2,0-2.2-0.2-3.2-0.6c-1-0.4-1.9-1-2.6-1.7c-0.7-0.7-1.3-1.6-1.7-2.6s-0.6-2.1-0.6-3.3      c0-1.2,0.2-2.3,0.6-3.3s1-1.9,1.7-2.6c0.7-0.7,1.6-1.3,2.6-1.7c1-0.4,2.1-0.6,3.2-0.6c1.2,0,2.2,0.2,3.2,0.6      c1,0.4,1.9,1,2.6,1.7c0.7,0.7,1.3,1.6,1.7,2.6s0.6,2.1,0.6,3.3C83.1,18.9,82.9,20,82.5,21"/>
                <path fill="#FFFFFF" d="M140,25.8c1-1.1,1.7-2.4,2.2-3.8c0.4-1.4,0.7-2.8,0.7-4.2c0-1.3-0.2-2.6-0.6-4c-0.4-1.4-1.1-2.6-2.1-3.7      s-2.4-2-4.1-2.8c-1.7-0.7-3.8-1.1-6.4-1.1h-9v23.4h9.5c2.4,0,4.4-0.4,6-1.1C137.7,27.8,139,26.9,140,25.8 M137.4,21.2      c-0.4,1-1,1.8-1.8,2.5c-0.7,0.7-1.6,1.2-2.6,1.6c-1,0.4-2,0.5-3.1,0.5h-4.8V10h4.5c1.2,0,2.4,0.2,3.4,0.6c1,0.4,1.9,0.9,2.7,1.6      c0.7,0.7,1.3,1.5,1.7,2.4c0.4,0.9,0.6,2,0.6,3.1C138.1,19.1,137.9,20.2,137.4,21.2"/>
                <polygon fill="#FFFFFF" points="110.2,6.2 110.2,21.7 96.5,6.2 92.5,6.2 92.5,29.6 97.1,29.6 97.1,13.5 111.5,29.6 114.8,29.6       114.8,6.2     "/>
                <path fill="#FFFFFF" d="M19.1,24.9c1.2-3.7-0.1-6.3-0.3-6.7c-0.2-0.4-1.5-2.8-6.2-4.2c-4.9-1.4-6-2.6-6.3-3.1      c-0.4-0.5-1.1-2.6,0.4-4.4C7.6,5.4,9,5,10.3,5c0.9,0,1.8,0.2,2.4,0.5c1.5,0.7,3.4,1.7,3.4,1.7l1.8-3.9c-3.5-1.9-5.6-2.3-8-2.4      H9.8c-1.4,0-3.7,0.4-5.8,2C1.4,5,0.9,7.7,0.9,8.2c-0.1,1.7-0.1,3.7,1.4,5.5c1.4,1.6,3.2,2.4,6.9,3.5c3.1,0.9,4.3,2.3,4.3,2.3      c2,2.1,0.6,4.9,0.6,4.9c-0.7,1.5-2.5,2.3-4.4,2.3c-0.9,0-1.8-0.2-2.7-0.6c-1.3-0.5-3.9-2.2-4.3-2.6c-0.2,0.3-1.8,4.1-1.8,4.1      s1.2,0.8,2.9,1.6c2.4,1.1,4,1.5,6.1,1.5c0.5,0,1,0,1.5-0.1C14.2,30.5,18,28.7,19.1,24.9"/>
			</g>
            <g transform="translate(0.000000, 4.000000)">
				<path fill="#FFFFFF" d="M0.5,0h5.3c2.8,0,4.9,0.6,6.3,1.7c1.4,1.2,2.1,2.8,2.1,4.8c0,2.4-1.2,4.3-3.6,5.6c3.9,0.8,5.8,3,5.8,6.4      c0,2.1-0.8,3.7-2.3,4.9c-1.5,1.2-3.6,1.8-6.2,1.8H0.5V0L0.5,0z M2.5,1.7v10.1h2.7c4.6,0,6.9-1.7,6.9-5c0-3.4-2.3-5-7-5L2.5,1.7      L2.5,1.7z M2.5,13.4v10.3h5.2c2.2,0,3.8-0.5,4.9-1.4c1.1-0.9,1.7-2.2,1.7-3.7c0-3.5-2.5-5.2-7.5-5.2H2.5L2.5,13.4z"/>
                <path fill="#FFFFFF" d="M31.5,25.3v-2.8h-0.1c-0.8,1.1-1.6,1.9-2.4,2.4s-1.8,0.7-3.1,0.7c-1.8,0-3.3-0.6-4.4-1.7      c-1.2-1.2-1.8-2.8-1.8-4.9V8.7h1.8V19c0,1.5,0.4,2.8,1.3,3.6c0.8,0.9,1.9,1.3,3.3,1.3c1.2,0,2.1-0.3,3-0.8      c0.8-0.5,1.6-1.4,2.5-2.8V8.6h1.8v16.7H31.5L31.5,25.3z"/>
                <path fill="#FFFFFF" d="M39.5,0v3h-1.8V0H39.5z M39.5,8.7v16.7h-1.8V8.7H39.5z"/>
                <polygon fill="#FFFFFF" points="45.9,0 45.9,25.3 44.1,25.3 44.1,0     "/>
                <path fill="#FFFFFF" d="M54.2,3.1v5.5h4.7V10h-4.7v9.9c0,1.6,0.1,2.6,0.4,3.1c0.3,0.5,1,0.8,2.1,0.8c0.9,0,1.9-0.3,3-0.8v1.7      c-1.2,0.6-2.3,0.9-3.4,0.9c-1.1,0-2-0.3-2.8-0.9c-0.7-0.6-1.1-1.5-1.1-2.6v-12h-4.5V8.7h4.5v-4l1.2-1.6H54.2z"/>
                <path fill="#FFFFFF" d="M71.7,24.4V0h1.8v11c1.8-1.8,3.8-2.7,6-2.7s4,0.8,5.3,2.3c1.3,1.5,2.1,3.5,2.1,5.9c0,2.8-0.8,5-2.5,6.7      c-1.7,1.7-3.9,2.5-6.8,2.5C75.7,25.6,73.8,25.2,71.7,24.4z M73.4,13v10.1c1.4,0.5,2.7,0.8,4.1,0.8c2.1,0,3.9-0.7,5.3-2.1      c1.4-1.4,2.1-3.1,2.1-5.3c0-2-0.5-3.6-1.6-4.9c-1.1-1.3-2.5-1.9-4.1-1.9C77.3,9.8,75.3,10.9,73.4,13z"/>
                <polygon fill="#FFFFFF" points="103,8.7 90.5,33.9 88.7,33.9 94.5,22.1 87.5,8.7 89.4,8.7 95.4,20.3 101.2,8.7     "/>
			</g>
		</g>
        <g>
			<path fill="#FFFFFF" d="M468.9,68.1c-3.6-3.7-9.1-6.4-16.3-7.8c-2.5-0.6-4.5-1-6-1.4c-1.4-0.3-2.5-0.7-3.2-1.1     c-0.8-0.5-1-0.8-1.1-1c-0.1-0.3-0.3-0.7-0.3-1.6c0-1.2,0.5-2.1,1.7-2.8c1.3-0.8,3-1.2,5.1-1.2c4.3,0,8.7,1.2,13.2,3.5     c0.2,0.1,0.3,0.1,0.5,0.1c0.1,0,0.2,0,0.3-0.1c0.3-0.1,0.5-0.3,0.6-0.5l8.5-16.5c0.1-0.3,0.2-0.6,0.1-0.9s-0.3-0.5-0.6-0.6     c-7.6-3.1-15.5-4.7-23.5-4.7c-4.9,0-9.5,0.6-13.6,1.9c-4.1,1.3-7.6,3.1-10.5,5.4c-2.9,2.3-5.2,5.2-6.8,8.6     c-1.6,3.4-2.3,7.2-2.3,11.3c0,5.8,1.7,10.4,5,13.7c3.3,3.3,9,5.8,17,7.4c2.3,0.5,4.2,0.9,5.6,1.3c1.3,0.4,2.3,0.8,3,1.3     c0.6,0.4,0.9,0.8,1.1,1.2c0.2,0.5,0.3,1.1,0.3,1.9c0,1.2-0.6,2.2-1.8,3c-1.3,0.9-3,1.3-5.1,1.3c-6.1,0-12.7-2.4-19.5-7.1     c-0.2-0.1-0.4-0.2-0.6-0.2c-0.1,0-0.2,0-0.3,0c-0.3,0.1-0.6,0.3-0.7,0.6l-9.2,17.9c-0.3,0.5-0.1,1.2,0.4,1.5     c9.6,5.6,19.4,8.4,29.3,8.4c5.1,0,9.9-0.7,14.2-1.9c4.3-1.3,8.1-3.1,11.1-5.5c3.1-2.4,5.6-5.4,7.3-8.9c1.8-3.5,2.6-7.5,2.6-11.8     C474.4,76.8,472.5,71.9,468.9,68.1z"/>
            <g>
				<path fill="#FFFFFF" d="M110.3,0.4L110.3,0.4H76.1c-0.4,0-0.8,0.2-1,0.6L60.2,26.7L45.4,1c-0.2-0.3-0.6-0.6-1-0.6H10.5      c-0.4,0-0.8,0.2-1,0.6S9.3,1.8,9.6,2.1l32.5,48.7L1.2,106.5c-0.2,0.3-0.3,0.8-0.1,1.2c0.2,0.4,0.6,0.6,1,0.6h33.2      c0.4,0,0.7-0.2,0.9-0.5L61,73.3l16.3-21.8l33.8-49.3c0.1-0.2,0.2-0.4,0.2-0.7C111.4,0.9,110.9,0.4,110.3,0.4z"/>
                <polygon opacity="0.5" fill="#FFFFFF" enable-background="new    " points="101.4,84.5 73.6,46.3 60.1,57.9 49,57.9       101.4,132.7     "/>
			</g>
            <path fill="#FFFFFF" d="M403.8,68.1c-3.6-3.7-9.1-6.4-16.3-7.8c-2.5-0.6-4.5-1-6.1-1.4c-1.4-0.3-2.5-0.7-3.2-1.1     c-0.8-0.5-1-0.8-1.1-1c-0.1-0.3-0.3-0.7-0.3-1.6c0-1.2,0.5-2.1,1.7-2.8c1.3-0.8,3-1.2,5.1-1.2c4.3,0,11,1.2,15.5,3.5     c0.2,0.1,0.3,0.1,0.5,0.1c0.1,0,0.2,0,0.3-0.1c0.3-0.1,0.5-0.3,0.6-0.5l8.5-15.8c0.1-0.3,0.2-0.6,0.1-0.9s-0.3-0.5-0.6-0.6     c-8.2-3.2-14.3-5.4-25.8-5.4c-4.9,0-9.5,0.6-13.6,1.9c-4.1,1.3-7.6,3.1-10.5,5.4s-5.2,5.2-6.8,8.6c-1.6,3.4-2.3,7.2-2.3,11.3     c0,5.8,1.7,10.4,5,13.7c3.3,3.3,9,5.8,17,7.4c2.3,0.5,4.2,0.9,5.6,1.3c1.3,0.4,2.3,0.8,3,1.3c0.6,0.4,0.9,0.8,1.1,1.2     c0.2,0.5,0.3,1.1,0.3,1.9c0,1.2-0.6,2.2-1.8,3c-1.3,0.9-3,1.3-5.1,1.3c-6.1,0-12.7-2.4-19.5-7.1c-0.2-0.1-0.4-0.2-0.6-0.2     c-0.1,0-0.2,0-0.3,0c-0.3,0.1-0.6,0.3-0.7,0.6l-9.2,17.9c-0.3,0.5-0.1,1.2,0.4,1.5c9.6,5.6,19.4,8.4,29.3,8.4     c5.1,0,9.9-0.7,14.2-1.9c4.3-1.3,8.1-3.1,11.1-5.5c3.1-2.4,5.6-5.4,7.3-8.9c1.8-3.5,2.6-7.5,2.6-11.8     C409.2,76.8,407.4,71.9,403.8,68.1z"/>
            <path fill="#FFFFFF" d="M343,55.5c-1.8-5.1-4.5-9.5-8-13.1c-3.5-3.6-7.7-6.3-12.7-8.2c-5-1.9-10.6-2.8-16.8-2.8     c-6.3,0-12,0.9-17,2.8c-5,1.9-9.4,4.6-12.9,8c-3.6,3.5-6.3,7.7-8.2,12.6s-2.9,10.5-2.9,16.6c0,5.9,1,11.3,3,16.1s4.9,9,8.6,12.4     c3.7,3.4,8.2,6.1,13.3,8s10.9,2.8,17,2.8c20.2,0,33.1-8.5,38.2-25.4c0-0.1,0.1-0.3,0.1-0.4c0-0.6-0.5-1.1-1.1-1.1l0,0h-24.5     c-0.4,0-0.7,0.2-0.9,0.5c-2.6,4.2-6.4,6.2-11.5,6.2c-9.3,0-14-4.6-14.3-14.2h52.2c0.6,0,1.1-0.5,1.1-1.1v-2.7     C345.7,66.4,344.8,60.6,343,55.5z M291.9,60.7c0.7-3.7,2.2-6.6,4.7-8.7s5.7-3.1,9.6-3.1c3.7,0,6.9,1.1,9.5,3.2     c2.6,2.1,4.3,5,5.2,8.5h-29V60.7z"/>
            <path fill="#FFFFFF" d="M191.7,56.2c-1.9-4.8-4.5-9-7.9-12.5c-3.4-3.5-7.4-6.4-11.9-8.4c-4.6-2.1-9.5-3.1-14.8-3.1     c-8.6,0-15.6,2.8-21,8.4v-5c0-0.6-0.5-1.1-1.1-1.1h-25.4c-0.6,0-1.1,0.5-1.1,1.1v107.7c0,0.6,0.5,1.1,1.1,1.1H135     c0.6,0,1.1-0.5,1.1-1.1V103c5.8,5.2,13,7.8,21.3,7.8c5.3,0,10.2-1,14.7-3s8.5-4.8,11.8-8.4c3.3-3.5,5.9-7.7,7.8-12.4     c1.9-4.7,2.8-9.8,2.8-15.3S193.6,61,191.7,56.2z M165.6,77.8c-0.9,2-2.1,3.7-3.5,5.2c-1.4,1.5-3.2,2.7-5.1,3.5     c-2,0.8-4.1,1.3-6.3,1.3s-4.4-0.4-6.4-1.3s-3.8-2.1-5.3-3.5s-2.7-3.2-3.5-5.1c-0.8-2-1.3-4.1-1.3-6.3c0-2.2,0.4-4.4,1.3-6.4     c0.9-2,2.1-3.8,3.5-5.3s3.2-2.7,5.1-3.5c2-0.8,4.1-1.3,6.3-1.3c2.3,0,4.5,0.4,6.5,1.3c2,0.9,3.8,2.1,5.3,3.6s2.6,3.2,3.4,5.3     c0.8,2,1.2,4.1,1.2,6.4C167,73.7,166.5,75.8,165.6,77.8z"/>
            <path fill="#FFFFFF" d="M268.6,36.7c0,0-1.3-0.8-2-1.1c-4.4-2.1-9.2-2.8-11.5-2.9l0,0c-0.8-0.1-1.3-0.1-1.3-0.1h-2.2     c-5.4,0-10.2,1.2-14.3,3.6c-3.1,1.8-5.9,4.3-8.3,7.3v-8.3c0-0.6-0.5-1.1-1.1-1.1h-25.4c-0.6,0-1.1,0.5-1.1,1.1v71.9     c0,0.6,0.5,1.1,1.1,1.1H228c0.6,0,1.1-0.5,1.1-1.1V76.3c0-6.4,1.4-11.3,4.2-14.6c2.3-2.7,5.5-4.3,9.8-4.7     c5.6-0.3,9.3,0.9,11.7,1.8l0.5,0.2l0.5,0.2c0,0,0,0,0.1,0.1l0.4,0.2c0,0,1.2,0.5,1.7-0.3c0.5-0.9,0.5-0.9,0.5-0.9     c2.4-4.3,9.9-18.7,9.9-18.7l0.8-1.5C269.2,37.7,269.4,37.2,268.6,36.7z"/>
		</g>
	</g>
</g>
</svg>